<svg width="588" height="467" viewBox="0 0 588 467" fill="none" xmlns="http://www.w3.org/2000/svg">
<path opacity="0.1" d="M344.635 78.9162C307.452 77.6241 272.032 65.6269 238.216 52.4984C204.399 39.3699 170.904 24.8228 134.611 17.8681C111.268 13.3942 84.5702 12.7625 65.766 25.2708C47.6626 37.3311 41.814 58.0921 38.6713 77.3771C36.3042 91.8839 34.9139 107.149 41.4003 120.731C45.8988 130.161 53.8905 138.086 59.4117 147.149C78.6411 178.575 65.0535 217.328 44.2155 248.013C34.4485 262.411 23.1016 276.154 15.5638 291.465C8.02606 306.776 4.53294 324.344 11.1285 339.976C17.6724 355.482 33.2593 367.106 50.1388 375.29C84.4323 391.916 124.827 396.671 164.245 399.365C251.476 405.332 339.166 402.747 426.626 400.163C458.995 399.204 491.501 398.233 523.342 393.231C541.026 390.452 559.278 386.047 572.119 375.399C588.413 361.886 592.451 339 581.535 322.058C563.214 293.636 512.592 286.578 499.769 256.071C492.725 239.284 499.964 220.585 510.202 205.01C532.172 171.608 568.994 142.302 570.935 104.122C572.268 77.894 554.561 51.6369 527.191 39.2263C498.505 26.1724 458.713 27.8264 437.559 49.357C415.762 71.5422 377.464 80.0534 344.635 78.9162Z" fill="#40CBF6"/>
<path d="M250.178 396.55L53.5287 395.591L33.989 349.779L103.082 344.766L91.0395 294.537L227.696 276.832L96.8365 231.358L108.396 228.613L318.816 262.928L307.228 341.314L290.664 384.392L250.178 396.55Z" fill="#82C041"/>
<path d="M56.5449 376.404C56.5449 376.404 68.6099 374.474 75.849 382.997C75.849 382.997 70.5403 387.178 59.1188 381.389L56.5449 376.404Z" fill="#82C041"/>
<path d="M55.2812 376.215C55.2812 376.215 47.5825 385.685 51.3744 396.229C51.3744 396.229 57.6482 393.719 58.3319 380.935L55.2812 376.215Z" fill="#82C041"/>
<path d="M48.3635 360.645C48.3635 360.645 53.1895 351.795 72.4936 364.183C72.4936 364.183 69.9197 370.133 61.3938 369.65C52.8678 369.168 50.6157 365.309 48.3635 360.645Z" fill="#82C041"/>
<path d="M47.117 360.008C47.117 360.008 37.103 358.859 36.1321 381.774C36.1321 381.774 42.4806 383.089 46.9906 375.841C51.5007 368.593 49.6507 364.527 47.117 360.008Z" fill="#82C041"/>
<path d="M41.2854 341.728C41.2854 341.728 46.9158 326.13 67.3459 337.225C67.3459 337.225 62.6808 351.537 43.3767 347.034L41.2854 341.728Z" fill="#82C041"/>
<path d="M35.0117 318.411C35.0117 318.411 45.629 302.652 64.4504 317.263C64.4504 317.263 57.8549 332.057 36.6204 324.016L35.0117 318.411Z" fill="#82C041"/>
<path d="M32.7595 296.22C32.7595 296.22 45.1463 281.742 63.7839 296.22C63.7839 296.22 52.0406 308.924 32.7595 299.919V296.22Z" fill="#82C041"/>
<path d="M30.8291 274.667C30.8291 274.667 43.3768 259.551 61.233 273.863C61.233 273.863 47.0767 287.21 30.8291 278.204V274.667Z" fill="#82C041"/>
<path d="M31.9551 255.531C31.9551 255.531 45.1692 236.074 61.8764 249.26C61.8764 249.26 47.7201 265.983 31.9551 259.229V255.531Z" fill="#82C041"/>
<path d="M35.0117 233.179C35.0117 233.179 49.0072 213.883 65.2548 228.676C65.2548 228.676 48.6854 245.4 35.0117 236.717V233.179Z" fill="#82C041"/>
<path d="M39.6768 213.199C39.6768 213.199 56.2461 195.063 70.7012 202.287C70.7012 202.287 53.4367 221.55 38.9529 218.012L39.6768 213.199Z" fill="#82C041"/>
<path d="M45.4682 194.259C45.4682 194.259 64.5884 172.045 75.7112 179.465C75.7112 179.465 61.6239 196.694 44.1123 198.416L45.4682 194.259Z" fill="#82C041"/>
<path d="M53.8275 172.292C53.8275 172.292 70.5634 154.155 82.7893 158.658C82.7893 158.658 68.4721 177.472 51.5811 177.954L53.8275 172.292Z" fill="#82C041"/>
<path d="M61.3939 151.743C61.3939 151.743 79.8937 134.377 87.9371 137.432C87.9371 137.432 74.5851 156.728 60.5896 155.603L61.3939 151.743Z" fill="#82C041"/>
<path d="M68.7937 132.768C68.7937 132.768 84.7196 112.019 93.4121 113.627C93.4121 113.627 83.7544 132.125 68.7937 134.876V132.768Z" fill="#82C041"/>
<path d="M76.8256 107.183C76.8256 107.183 90.9016 91.2808 98.5083 91.3152C98.5083 91.3152 87.3969 112.564 76.2454 112.369L76.8256 107.183Z" fill="#82C041"/>
<path d="M81.5826 90.1494L95.1817 57.0237C95.1817 57.0237 95.8596 86.9677 79.8533 96.2944L81.5826 90.1494Z" fill="#82C041"/>
<path d="M87.1041 53.6182C87.1041 53.6182 89.3563 25.9541 87.9085 23.7029C87.9085 23.7029 97.6294 46.7036 87.0122 65.8393L87.1041 53.6182Z" fill="#82C041"/>
<path d="M40.7569 341.36C40.7569 341.36 26.658 332.625 17.5288 353.995C17.5288 353.995 30.0765 362.322 42.4173 346.81L40.7569 341.36Z" fill="#82C041"/>
<path d="M34.5578 317.521C34.5578 317.521 17.2646 309.636 8.87646 331.947C8.87646 331.947 22.2342 341.136 36.132 323.161L34.5578 317.521Z" fill="#82C041"/>
<path d="M31.9551 297.547C31.9551 297.547 19.5683 283.069 0.930664 297.547C0.930664 297.547 12.674 310.25 31.9551 301.245V297.547Z" fill="#82C041"/>
<path d="M30.4039 274.667C30.4039 274.667 17.8563 259.551 0 273.863C0 273.863 14.1563 287.21 30.4039 278.204V274.667Z" fill="#82C041"/>
<path d="M31.9549 256.082C31.9549 256.082 23.1532 234.287 4.02148 243.66C4.02148 243.66 14.363 262.985 31.1736 259.7L31.9549 256.082Z" fill="#82C041"/>
<path d="M36.1205 233.07C36.1205 233.07 27.3705 210.896 7.96875 221.176C7.96875 221.176 19.85 241.501 35.2587 236.493L36.1205 233.07Z" fill="#82C041"/>
<path d="M41.5442 213.308C41.5442 213.308 38.097 188.998 22.0103 186.822C22.0103 186.822 25.4229 212.458 39.3782 217.69L41.5442 213.308Z" fill="#82C041"/>
<path d="M45.8759 194.305C45.8759 194.305 44.5315 165.015 31.2312 163.993C31.2312 163.993 31.6793 186.224 44.3764 198.451L45.8759 194.305Z" fill="#82C041"/>
<path d="M55.2062 171.47C55.2062 171.47 51.242 147.114 38.5449 144.139C38.5449 144.139 40.1191 167.726 53.948 177.449L55.2062 171.47Z" fill="#82C041"/>
<path d="M62.899 151.944C62.899 151.944 62.7668 126.571 55.0107 122.844C55.0107 122.844 50.2019 145.816 60.6526 155.183L62.899 151.944Z" fill="#82C041"/>
<path d="M69.3856 132.481C69.3856 132.481 68.2997 106.356 60.2679 102.675C60.2679 102.675 57.5216 123.35 68.1848 134.193L69.3856 132.481Z" fill="#82C041"/>
<path d="M77.9458 109.268C77.9458 109.268 77.8998 88.0189 72.1661 83.0339C72.1661 83.0339 66.4668 106.31 74.9525 113.541L77.9458 109.268Z" fill="#82C041"/>
<path d="M80.9104 89.1042L75.3317 53.7388C75.3317 53.7388 67.7537 82.718 81.1746 95.4904L80.9104 89.1042Z" fill="#82C041"/>
<path d="M81.9964 53.9513C81.9964 53.9513 67.6792 30.1752 67.9722 27.5334C67.9722 27.5334 69.4947 52.4524 87.5061 64.863L81.9964 53.9513Z" fill="#82C041"/>
<path d="M83.6739 46.9276C83.6739 46.9276 70.1611 13.1587 64.0481 10.425C64.0481 10.425 83.3522 20.2341 84.8 45.9628L83.6739 46.9276Z" fill="#82C041"/>
<path d="M76.1765 112.57L75.2515 112.289C86.6558 75.1141 89.4997 51.4127 83.2661 45.4687L83.9268 44.7681C90.5396 51.0394 87.8566 74.4824 76.1765 112.57Z" fill="#444053"/>
<path d="M44.7729 199.611L43.4055 199.123C44.6178 195.718 45.9219 192.26 47.2893 188.855C59.1935 159.198 69.3281 131.608 75.826 110.428L77.0153 109.854C70.5059 131.074 60.5494 159.72 48.6337 189.417C47.2721 192.76 45.9736 196.2 44.7729 199.611Z" fill="#444053"/>
<path d="M73.5451 404.223C73.3613 404.022 54.8788 383.215 41.9921 347.695C34.4413 326.899 30.2391 305.037 29.5422 282.925C28.6574 255.284 34.4601 224.421 44.3994 196.384L45.4795 197.647C23.1649 260.573 32.0299 314.495 43.7904 346.965C56.5391 382.164 74.8148 402.742 74.9929 402.948L73.5451 404.223Z" fill="#444053"/>
<path d="M362.371 360.048C362.371 360.048 349.347 375.939 359.688 399.962L255.699 445.044L245.719 447.135L241.123 427.034L244.197 401.667V387.804L362.371 360.048Z" fill="#D5D6DB"/>
<path d="M33.989 349.78L177.919 323.551L368.633 353.92L250.178 396.551L33.989 349.78Z" fill="#82C041"/>
<path d="M33.989 349.78L177.919 323.551L368.633 353.92L250.178 396.551L33.989 349.78Z" fill="url(#paint0_linear_213_244)"/>
<path d="M33.9889 349.774C33.9889 349.774 20.5278 375.267 36.04 398.813L249.477 445.044C249.477 445.044 236.228 424.737 250.16 396.551L33.9889 349.774Z" fill="url(#paint1_linear_213_244)"/>
<path opacity="0.1" d="M33.9889 349.774C33.9889 349.774 20.5278 375.267 36.04 398.813L249.477 445.044C249.477 445.044 236.228 424.737 250.16 396.551L33.9889 349.774Z" fill="black"/>
<path opacity="0.1" d="M40.349 358.612C40.349 358.612 32.6561 377.265 40.349 389.337V358.612Z" fill="black"/>
<path d="M249.477 445.044L368.633 394.219C368.633 394.219 375.298 395.655 370.989 400.536C366.68 405.418 251.775 449.926 251.775 449.926L36.04 398.813L249.477 445.044Z" fill="url(#paint2_linear_213_244)"/>
<path opacity="0.1" d="M249.477 445.044L368.633 394.219C368.633 394.219 375.298 395.655 370.989 400.536C366.68 405.418 251.775 449.926 251.775 449.926L36.04 398.813L249.477 445.044Z" fill="black"/>
<path opacity="0.1" d="M239.71 401.685C239.71 401.685 228.219 415.468 239.71 436.143V401.685Z" fill="black"/>
<path opacity="0.1" d="M295.339 401.452L243.799 418.64L243.981 419.184L295.521 401.997L295.339 401.452Z" fill="black"/>
<path opacity="0.1" d="M305.663 399.741L243.783 423.263L243.987 423.799L305.867 400.278L305.663 399.741Z" fill="black"/>
<path opacity="0.1" d="M315.143 399.659L244.128 428.715L244.346 429.247L315.361 400.191L315.143 399.659Z" fill="black"/>
<path opacity="0.1" d="M325.453 397.171L244.957 433.518L245.194 434.042L325.689 397.694L325.453 397.171Z" fill="black"/>
<path opacity="0.1" d="M334.114 397.183L245.594 435.859L245.824 436.386L334.344 397.709L334.114 397.183Z" fill="black"/>
<path opacity="0.1" d="M353.059 393.967L246.929 439.787L247.157 440.315L353.287 394.494L353.059 393.967Z" fill="black"/>
<path d="M87.4602 352.582L188.577 331.333L250.178 343.106L167.319 369.811L87.4602 352.582Z" fill="#E1E1E1"/>
<path d="M368.633 353.92C368.633 353.92 373.862 356.028 370.794 359.284C367.726 362.54 250.16 396.551 250.16 396.551L368.633 353.92Z" fill="#82C041"/>
<path d="M419.415 304.812C419.415 304.812 406.397 320.697 416.738 344.726L312.749 389.808L302.769 391.91L298.173 371.81L301.293 346.449V332.568L419.415 304.812Z" fill="#D5D6DB"/>
<path d="M91.0393 294.537L234.964 268.315L425.684 298.684L307.228 341.314L91.0393 294.537Z" fill="#3A3768"/>
<path d="M91.0161 294.537C91.0161 294.537 77.5492 320.031 93.0614 343.577L306.498 389.808C306.498 389.808 293.255 369.484 307.204 341.308L91.0161 294.537Z" fill="#3A3768"/>
<path opacity="0.1" d="M91.0161 294.537C91.0161 294.537 77.5492 320.031 93.0614 343.577L306.498 389.808C306.498 389.808 293.255 369.484 307.204 341.308L239.709 326.704L91.0161 294.537Z" fill="black"/>
<path opacity="0.1" d="M97.3936 303.376C97.3936 303.376 89.7064 322.024 97.3936 334.101V303.376Z" fill="black"/>
<path d="M306.521 389.808L425.684 338.983C425.684 338.983 432.343 340.418 428.034 345.3C423.725 350.182 308.82 394.69 308.82 394.69L93.085 343.577L306.521 389.808Z" fill="#3A3768"/>
<path opacity="0.1" d="M306.521 389.808L425.684 338.983C425.684 338.983 432.343 340.418 428.034 345.3C423.725 350.182 308.82 394.69 308.82 394.69L93.085 343.577L306.521 389.808Z" fill="black"/>
<path opacity="0.1" d="M296.754 346.449C296.754 346.449 285.263 360.232 296.754 380.907V346.449Z" fill="black"/>
<path opacity="0.1" d="M352.389 346.221L300.849 363.41L301.031 363.955L352.571 346.766L352.389 346.221Z" fill="black"/>
<path opacity="0.1" d="M362.719 344.508L300.839 368.03L301.044 368.567L362.923 345.045L362.719 344.508Z" fill="black"/>
<path opacity="0.1" d="M372.191 344.418L301.176 373.474L301.394 374.006L372.409 344.949L372.191 344.418Z" fill="black"/>
<path opacity="0.1" d="M382.507 341.931L302.011 378.279L302.248 378.802L382.744 342.454L382.507 341.931Z" fill="black"/>
<path opacity="0.1" d="M391.16 341.935L302.641 380.612L302.871 381.138L391.391 342.462L391.16 341.935Z" fill="black"/>
<path opacity="0.1" d="M410.11 338.719L303.98 384.54L304.208 385.068L410.338 339.246L410.11 338.719Z" fill="black"/>
<path opacity="0.45" d="M144.51 297.346L245.627 276.097L307.228 287.87L224.37 314.575L144.51 297.346Z" fill="white"/>
<path d="M425.684 298.684C425.684 298.684 430.906 300.792 427.844 304.042C424.782 307.293 307.228 341.309 307.228 341.309L425.684 298.684Z" fill="#3A3768"/>
<path d="M424.817 241.621C424.817 241.621 411.792 270.147 422.134 294.17L318.145 326.618L308.188 328.726L303.592 308.625L306.666 283.258V269.377L424.817 241.621Z" fill="#D5D6DB"/>
<path d="M96.4573 231.353L240.388 205.125L431.107 235.494L312.646 278.124L96.4573 231.353Z" fill="url(#paint3_linear_213_244)"/>
<path d="M96.4571 231.347C96.4571 231.347 82.973 256.84 98.4852 280.387L311.922 326.618C311.922 326.618 298.673 306.293 312.623 278.124L96.4571 231.347Z" fill="url(#paint4_linear_213_244)"/>
<path opacity="0.1" d="M96.3975 231.465C96.3975 231.465 82.9134 256.958 98.4256 280.504L311.862 326.735C311.862 326.735 298.614 306.411 312.563 278.241L96.3975 231.465Z" fill="black"/>
<path opacity="0.1" d="M102.817 240.186C102.817 240.186 95.1244 258.839 102.817 270.911V240.186Z" fill="black"/>
<path d="M311.945 326.618L431.102 288.427C431.102 288.427 437.766 289.863 433.457 294.744C429.148 299.626 314.243 331.5 314.243 331.5L98.5083 280.387L311.945 326.618Z" fill="url(#paint5_linear_213_244)"/>
<path opacity="0.1" d="M311.945 326.618L431.102 288.427C431.102 288.427 437.766 289.863 433.457 294.744C429.148 299.626 314.243 331.5 314.243 331.5L98.5083 280.387L311.945 326.618Z" fill="black"/>
<path opacity="0.1" d="M302.177 283.258C302.177 283.258 290.688 297.041 302.177 317.716V283.258Z" fill="black"/>
<path opacity="0.1" d="M357.814 283.03L306.273 300.218L306.455 300.763L357.996 283.575L357.814 283.03Z" fill="black"/>
<path opacity="0.1" d="M368.14 281.32L306.26 304.841L306.465 305.378L368.344 281.857L368.14 281.32Z" fill="black"/>
<path opacity="0.1" d="M377.607 281.232L306.592 310.288L306.81 310.82L377.825 281.764L377.607 281.232Z" fill="black"/>
<path opacity="0.1" d="M387.932 278.74L307.436 315.088L307.672 315.611L388.168 279.263L387.932 278.74Z" fill="black"/>
<path opacity="0.1" d="M396.588 278.75L308.068 317.427L308.298 317.953L396.818 279.276L396.588 278.75Z" fill="black"/>
<path opacity="0.1" d="M415.535 275.538L309.405 321.358L309.633 321.886L415.763 276.065L415.535 275.538Z" fill="black"/>
<path opacity="0.3" d="M149.928 234.155L251.045 212.906L312.646 224.679L229.787 251.384L149.928 234.155Z" fill="white"/>
<path d="M431.102 235.494C431.102 235.494 436.33 237.601 433.262 240.858C430.194 244.114 312.646 278.124 312.646 278.124L431.102 235.494Z" fill="#82C041"/>
<path d="M178.344 61.1586C178.344 61.1586 156.512 59.8435 159.063 75.1544C159.063 75.1544 158.552 77.8593 161.005 79.0883C161.005 79.0883 161.045 77.9397 163.246 78.336C164.031 78.4708 164.83 78.5094 165.624 78.4508C166.695 78.3775 167.714 77.9583 168.526 77.2563C168.526 77.2563 174.667 74.7179 177.057 64.6791C177.057 64.6791 178.827 62.491 178.781 61.9282L175.081 63.5018C175.081 63.5018 176.339 66.1608 175.351 68.3719C175.351 68.3719 175.23 63.5994 174.518 63.7085C174.374 63.7085 172.605 64.6332 172.605 64.6332C172.605 64.6332 174.771 69.2678 173.133 72.6332C173.133 72.6332 173.754 66.9246 171.927 64.9663L169.33 66.4824C169.33 66.4824 171.864 71.2663 170.146 75.1716C170.146 75.1716 170.588 69.1816 168.784 66.85L166.429 68.6877C166.429 68.6877 168.813 73.4027 167.359 76.6418C167.359 76.6418 167.17 69.6698 165.923 69.1414C165.923 69.1414 163.861 70.9562 163.55 71.7028C163.55 71.7028 165.182 75.1486 164.165 76.9347C164.165 76.9347 163.55 72.2886 163.016 72.2656C163.016 72.2656 160.965 75.3439 160.752 77.4343C160.852 75.4854 161.46 73.5965 162.516 71.9555C161.334 72.1791 160.243 72.7441 159.379 73.5808C159.379 73.5808 159.695 71.4042 163.027 71.2146C163.027 71.2146 164.722 68.8772 165.176 68.7394C165.176 68.7394 161.861 68.458 159.856 69.3482C159.856 69.3482 161.626 67.2979 165.779 68.1996L168.078 66.3044C168.078 66.3044 163.723 65.7301 161.873 66.3676C161.873 66.3676 164.004 64.5528 168.704 65.8737L171.237 64.3632C171.237 64.3632 167.52 63.565 165.308 63.8521C165.308 63.8521 167.641 62.5944 171.979 63.9555L173.783 63.1457C173.783 63.1457 171.065 62.6116 170.267 62.5255C169.468 62.4393 169.428 62.2211 169.428 62.2211C171.153 61.9379 172.922 62.1367 174.541 62.7954C174.541 62.7954 178.419 61.3998 178.344 61.1586Z" fill="#82C041"/>
<path opacity="0.1" d="M485.486 124.091C485.486 124.091 463.654 122.775 466.205 138.086C466.205 138.086 465.694 140.791 468.147 142.02C468.147 142.02 468.187 140.872 470.388 141.268C471.173 141.4 471.972 141.438 472.766 141.383C473.828 141.305 474.835 140.886 475.639 140.188C475.639 140.188 481.786 137.65 484.171 127.611C484.171 127.611 485.94 125.423 485.894 124.86L482.206 126.434C482.206 126.434 483.464 129.093 482.476 131.304C482.476 131.304 482.355 126.531 481.649 126.64C481.505 126.64 479.73 127.565 479.73 127.565C479.73 127.565 481.896 132.2 480.264 135.565C480.264 135.565 480.884 129.857 479.052 127.898L476.455 129.414C476.455 129.414 478.989 134.198 477.271 138.103C477.271 138.103 477.713 132.114 475.909 129.782L473.559 131.62C473.559 131.62 475.938 136.335 474.484 139.574C474.484 139.574 474.295 132.602 473.048 132.073C473.048 132.073 470.991 133.888 470.675 134.635C470.675 134.635 472.307 138.081 471.296 139.867C471.296 139.867 470.675 135.22 470.147 135.198C470.147 135.198 468.096 138.276 467.883 140.366C467.982 138.417 468.593 136.527 469.653 134.887C468.469 135.111 467.377 135.676 466.51 136.513C466.51 136.513 466.832 134.336 470.158 134.147C470.158 134.147 471.853 131.809 472.307 131.666C472.307 131.666 468.998 131.39 466.987 132.28C466.987 132.28 468.756 130.23 472.91 131.131L475.208 129.236C475.208 129.236 470.848 128.662 469.003 129.299C469.003 129.299 471.129 127.485 475.834 128.806L478.362 127.295C478.362 127.295 474.645 126.497 472.433 126.784C472.433 126.784 474.766 125.526 479.103 126.887L480.913 126.078C480.913 126.078 478.19 125.544 477.391 125.457C476.593 125.371 476.553 125.153 476.553 125.153C478.277 124.866 480.048 125.065 481.666 125.727C481.666 125.727 485.555 124.332 485.486 124.091Z" fill="#82C041"/>
<path opacity="0.1" d="M215.114 155.746C215.114 155.746 205.6 136.03 193.489 145.748C193.489 145.748 190.875 146.62 191.001 149.36C191.001 149.36 192.007 148.837 192.725 150.951C192.993 151.698 193.348 152.411 193.782 153.076C194.37 153.977 195.235 154.662 196.247 155.028C196.247 155.028 201.458 159.152 211.391 156.338C211.391 156.338 214.166 156.814 214.62 156.481L211.449 154.029C211.449 154.029 209.725 156.424 207.324 156.636C207.324 156.636 211.437 154.207 210.995 153.644C210.903 153.529 209.271 152.421 209.271 152.421C209.271 152.421 206.278 156.573 202.544 156.786C202.544 156.786 207.829 154.546 208.645 151.99L206.06 150.463C206.06 150.463 203.112 155.011 198.867 155.413C198.867 155.413 204.313 152.88 205.468 150.17L202.722 149.021C202.722 149.021 199.763 153.397 196.224 153.713C196.224 153.713 202.222 150.147 202.072 148.797C202.072 148.797 199.481 147.89 198.677 147.976C198.677 147.976 196.482 151.071 194.414 151.071C194.414 151.071 198.166 148.263 197.936 147.809C197.936 147.809 194.247 147.522 192.305 148.384C194.055 147.514 196.002 147.118 197.953 147.235C197.179 146.313 196.153 145.636 195 145.288C195 145.288 197.057 144.507 198.844 147.315C198.844 147.315 201.716 147.654 202.055 147.982C202.055 147.982 200.682 144.961 198.93 143.646C198.93 143.646 201.584 144.18 202.796 148.24L205.583 149.343C205.583 149.343 203.98 145.254 202.503 143.961C202.503 143.961 205.123 144.932 206.266 149.704L208.817 151.175C208.817 151.175 207.709 147.539 206.376 145.753C206.376 145.753 208.611 147.178 209.536 151.623L211.127 152.806C211.127 152.806 210.265 150.17 209.978 149.435C209.691 148.699 209.834 148.55 209.834 148.55C210.927 149.914 211.619 151.554 211.834 153.288C211.834 153.288 214.907 155.918 215.114 155.746Z" fill="#82C041"/>
<path opacity="0.1" d="M435.606 96.2371C435.606 96.2371 426.097 76.5213 413.98 86.2385C413.98 86.2385 411.372 87.1114 411.493 89.8508C411.493 89.8508 412.504 89.334 413.216 91.4416C413.484 92.1918 413.841 92.9071 414.279 93.5723C414.865 94.4716 415.728 95.1552 416.738 95.5192C416.738 95.5192 421.955 99.6427 431.883 96.8343C431.883 96.8343 434.658 97.3053 435.117 96.9722L431.963 94.5142C431.963 94.5142 430.239 96.9147 427.844 97.1272C427.844 97.1272 431.952 94.6922 431.509 94.1294C431.417 94.0145 429.786 92.9061 429.786 92.9061C429.786 92.9061 426.798 97.0583 423.058 97.2708C423.058 97.2708 428.349 95.031 429.165 92.4811L426.539 90.965C426.539 90.965 423.598 95.5077 419.346 95.9154C419.346 95.9154 424.793 93.377 425.953 90.6663L423.201 89.5177C423.201 89.5177 420.243 93.8997 416.709 94.2098C416.709 94.2098 422.702 90.6434 422.552 89.2995C422.552 89.2995 419.967 88.3864 419.163 88.4783C419.163 88.4783 416.968 91.568 414.894 91.568C414.894 91.568 418.651 88.7597 418.421 88.306C418.421 88.306 414.733 88.0188 412.785 88.8803C414.535 88.0106 416.482 87.6146 418.433 87.7317C417.662 86.8087 416.637 86.1318 415.486 85.7848C415.486 85.7848 417.542 85.0037 419.329 87.8121C419.329 87.8121 422.202 88.1566 422.541 88.484C422.541 88.484 421.168 85.4574 419.41 84.1423C419.41 84.1423 422.064 84.6821 423.276 88.7654L426.068 89.8681C426.068 89.8681 424.465 85.7733 422.989 84.4811C422.989 84.4811 425.609 85.4517 426.746 90.2241L429.303 91.6943C429.303 91.6943 428.188 88.0648 426.855 86.2729C426.855 86.2729 429.096 87.6972 430.015 92.1423L431.607 93.3253C431.607 93.3253 430.751 90.6893 430.458 89.9542C430.165 89.2191 430.314 89.0755 430.314 89.0755C431.404 90.4403 432.094 92.0804 432.308 93.8135C432.308 93.8135 435.427 96.4208 435.606 96.2371Z" fill="#82C041"/>
<path opacity="0.1" d="M465.993 193.759C465.993 193.759 456.484 174.038 444.35 183.755C444.35 183.755 441.742 184.628 441.863 187.367C441.863 187.367 442.874 186.85 443.586 188.958C443.852 189.708 444.207 190.423 444.643 191.089C445.229 191.988 446.093 192.671 447.102 193.035C447.102 193.035 452.319 197.165 462.253 194.351C462.253 194.351 465.022 194.827 465.482 194.488L462.31 192.036C462.31 192.036 460.587 194.437 458.185 194.649C458.185 194.649 462.293 192.214 461.851 191.651C461.759 191.537 460.127 190.428 460.127 190.428C460.127 190.428 457.139 194.58 453.399 194.799C453.399 194.799 458.691 192.553 459.506 190.003L456.915 188.475C456.915 188.475 453.974 193.024 449.722 193.426C449.722 193.426 455.169 190.888 456.329 188.177L453.577 187.028C453.577 187.028 450.619 191.404 447.085 191.72C447.085 191.72 453.083 188.154 452.934 186.804C452.934 186.804 450.343 185.891 449.538 185.983C449.538 185.983 447.344 189.073 445.27 189.073C445.27 189.073 449.027 186.264 448.797 185.811C448.797 185.811 445.109 185.524 443.161 186.385C444.913 185.516 446.862 185.12 448.814 185.236C448.042 184.312 447.015 183.635 445.861 183.29C445.861 183.29 447.918 182.503 449.705 185.317C449.705 185.317 452.578 185.656 452.917 185.983C452.917 185.983 451.543 182.962 449.791 181.641C449.791 181.641 452.446 182.181 453.658 186.264L456.444 187.367C456.444 187.367 454.841 183.272 453.365 181.986C453.365 181.986 455.985 182.951 457.122 187.729L459.679 189.193C459.679 189.193 458.564 185.564 457.231 183.772C457.231 183.772 459.472 185.196 460.397 189.647L461.988 190.796C461.988 190.796 461.127 188.16 460.839 187.425C460.552 186.689 460.696 186.546 460.696 186.546C461.788 187.909 462.479 189.55 462.689 191.284C462.689 191.284 465.815 193.931 465.993 193.759Z" fill="#82C041"/>
<path opacity="0.1" d="M116.026 450.339C123.32 450.339 129.234 449.678 129.234 448.863C129.234 448.048 123.32 447.387 116.026 447.387C108.731 447.387 102.817 448.048 102.817 448.863C102.817 449.678 108.731 450.339 116.026 450.339Z" fill="#44CAEC"/>
<path opacity="0.1" d="M29.4386 425.254C36.7334 425.254 42.647 424.593 42.647 423.778C42.647 422.963 36.7334 422.302 29.4386 422.302C22.1438 422.302 16.2302 422.963 16.2302 423.778C16.2302 424.593 22.1438 425.254 29.4386 425.254Z" fill="#82C041"/>
<path opacity="0.1" d="M182.028 467C189.322 467 195.236 466.339 195.236 465.524C195.236 464.709 189.322 464.048 182.028 464.048C174.733 464.048 168.819 464.709 168.819 465.524C168.819 466.339 174.733 467 182.028 467Z" fill="#44CAEC"/>
<path opacity="0.1" d="M520.25 430.71C527.545 430.71 533.459 430.049 533.459 429.234C533.459 428.419 527.545 427.758 520.25 427.758C512.956 427.758 507.042 428.419 507.042 429.234C507.042 430.049 512.956 430.71 520.25 430.71Z" fill="#82C041"/>
<path opacity="0.1" d="M410.338 423.548C417.633 423.548 423.547 422.887 423.547 422.072C423.547 421.257 417.633 420.596 410.338 420.596C403.043 420.596 397.13 421.257 397.13 422.072C397.13 422.887 403.043 423.548 410.338 423.548Z" fill="#82C041"/>
<path opacity="0.1" d="M339.235 458.477C347.862 458.477 354.856 457.277 354.856 455.795C354.856 454.314 347.862 453.114 339.235 453.114C330.607 453.114 323.614 454.314 323.614 455.795C323.614 457.277 330.607 458.477 339.235 458.477Z" fill="#82C041"/>
<path d="M346.204 428.838C346.204 428.838 324.452 440.071 335.69 453.303C335.69 453.303 336.747 456.174 339.804 455.973C339.804 455.973 339.195 454.859 341.527 453.969C342.357 453.648 343.146 453.23 343.877 452.723C344.865 452.04 345.603 451.054 345.98 449.915C345.98 449.915 350.427 443.965 346.979 432.955C346.979 432.955 347.428 429.843 347.037 429.337L344.394 432.961C344.394 432.961 347.123 434.793 347.439 437.487C347.439 437.487 344.566 432.967 343.992 433.467C343.866 433.57 342.682 435.448 342.682 435.448C342.682 435.448 347.416 438.658 347.767 442.828C347.767 442.828 345.101 436.987 342.222 436.154L340.573 439.095C340.573 439.095 345.744 442.242 346.319 446.974C346.319 446.974 343.314 440.973 340.246 439.761L339.034 442.868C339.034 442.868 344.021 446.038 344.48 449.978C344.48 449.978 340.309 443.39 338.81 443.597C338.81 443.597 337.867 446.515 337.994 447.416C337.994 447.416 341.516 449.771 341.579 452.085C341.579 452.085 338.327 447.979 337.827 448.249C337.827 448.249 337.62 452.378 338.62 454.526C338.62 454.526 336.897 451.459 337.178 448.249C336.17 449.14 335.445 450.306 335.092 451.603C335.092 451.603 334.156 449.334 337.241 447.244C337.241 447.244 337.534 444.034 337.89 443.637C337.89 443.637 334.552 445.268 333.133 447.267C333.133 447.267 333.656 444.286 338.183 442.805L339.333 439.657C339.333 439.657 334.805 441.576 333.409 443.264C333.409 443.264 334.415 440.306 339.689 438.888L341.251 436.016C341.251 436.016 337.23 437.372 335.265 438.888C335.265 438.888 336.787 436.344 341.734 435.172L343.004 433.363C343.004 433.363 340.085 434.403 339.269 434.776C338.453 435.149 338.293 434.965 338.293 434.965C339.784 433.705 341.596 432.882 343.527 432.588C343.527 432.588 346.405 429.033 346.204 428.838Z" fill="#82C041"/>
<path d="M410.763 216.674C407.006 206.468 386.323 205.509 377.349 208.111C370.972 209.966 357.528 212.056 350.346 213.107L349.881 212.665C350.811 212.389 350.834 211.712 350.72 210.707C350.653 209.382 350.672 208.055 350.777 206.732C355.178 208.099 359.096 204.866 359.096 204.866C364.267 202.569 362.876 192.737 363.865 190.049C364.606 188.039 365.404 176.197 365.761 170.293H365.835L365.875 168.312C365.927 167.456 365.95 166.956 365.95 166.956C365.95 166.956 366.456 152.518 367.444 149.595C368.363 146.908 369.11 133.366 369.225 131.218C369.225 131.034 369.225 130.936 369.225 130.936L369.15 129.684C369.202 128.771 369.225 127.755 369.219 126.686C369.219 121.776 368.708 115.591 368.645 114.592C368.645 114.448 368.645 114.276 368.645 114.069C368.685 111.973 368.421 101.475 359.487 97.5062C356.195 96.036 352.236 94.2844 348.404 92.5787C347.416 84.0503 345.158 75.5679 345.353 66.9764C345.353 65.6842 345.468 64.392 345.595 63.1056C345.595 63.4789 345.555 63.8579 345.549 64.2542C345.549 65.0869 345.549 65.9254 345.549 66.7581C345.888 56.013 349.95 45.2104 349.57 34.6949C349.536 35.7229 349.461 36.7567 349.364 37.7904C349.562 34.2337 349.19 30.6681 348.261 27.229C347.916 26.0172 347.45 24.7653 346.457 23.9555C345.517 23.3033 344.44 22.8768 343.308 22.7093C340.589 22.0137 337.828 21.4995 335.041 21.1701C334.617 19.8744 333.989 18.6548 333.179 17.5578C327.354 9.56352 318.724 2.05167 308.521 0.328766C303.402 -0.532685 297.513 0.185191 294.031 3.84349C293.667 4.16486 293.326 4.51021 293.008 4.87723C291.135 7.11126 290.331 10.0459 288.412 12.2742C288.286 12.4235 288.142 12.5614 288.004 12.7049C284.247 16.0646 278.392 16.7653 274.216 19.7803C273.48 20.3216 272.79 20.9228 272.153 21.5779C270.47 23.245 268.961 25.0788 267.649 27.051C265.77 29.6928 263.84 32.4437 263.242 35.5966C262.041 41.9139 266.345 47.9038 267.143 54.2613C268.924 68.4868 253.176 81.1099 256.158 95.1458C256.954 98.594 258.711 101.746 261.226 104.237C255.084 109.796 249.856 115.189 249.856 115.189V115.511H248.885L248.982 116.659H248.885L249.419 122.89L248.885 131.964C248.885 131.964 248.885 132.062 248.885 132.246V132.292V132.539C248.885 132.539 248.885 132.636 248.885 132.82H248.919C249.097 136.145 249.804 148.102 250.643 150.623C251.631 153.546 252.131 167.984 252.131 167.984C252.131 167.984 253.222 188.389 254.222 191.088C255.222 193.788 253.803 203.591 258.991 205.905C260.508 207.069 262.305 207.814 264.202 208.065C263.937 210.213 264.104 211.769 264.96 212.257C265.326 212.473 265.742 212.591 266.166 212.602C265.814 213.124 265.501 213.671 265.23 214.239C263.171 214.024 261.147 213.547 259.209 212.82C253.636 210.523 235.142 205.354 229.77 208.989C224.398 212.625 211.472 215.921 217.441 230.554C223.41 245.188 226.191 245.555 226.191 245.555C228.028 246.889 229.64 248.507 230.965 250.351C232.758 253.044 249.459 259.206 253.636 259.206C255.411 259.179 257.187 259.267 258.95 259.47C258.95 259.47 254.417 263.445 255.021 265.753C255.624 268.062 253.642 286.543 253.642 286.543C253.642 286.543 258.238 291.172 260.203 285.102L260.272 285.193C260.64 285.693 262.627 287.95 266.368 285.102C267.898 283.941 269.524 282.911 271.228 282.023L289.337 279.462C291.225 279.344 293.118 279.33 295.008 279.422C297.88 279.657 300.701 277.957 302.477 276.642C306.228 278.066 310.445 279.623 312.45 280.191C316.518 281.34 335.213 286.353 339.585 284.786C340.494 284.424 341.302 283.849 341.941 283.109L346.112 283.241L344.158 283.631C344.158 283.631 347.962 283.694 353.133 283.763L352.914 283.89L359.401 283.832C368.892 283.918 379.555 283.947 380.957 283.631C383.151 283.143 394.556 283.488 397.917 283.631H398.853C398.853 283.631 411.384 281.133 406.213 268.424C402.237 258.661 390.017 255.824 384.594 255.043C386.122 254.738 387.437 254.503 388.311 254.365C392.097 253.791 399.451 250.345 400.048 249.168C400.646 247.99 406.81 244.573 408.402 242.626C409.993 240.679 414.538 226.879 410.763 216.674ZM306.975 245.234L306.36 245.435L305.947 245.572L305.154 246.353C304.522 245.928 303.844 245.48 303.137 245.021C304.384 245.096 305.665 245.17 306.975 245.234Z" fill="url(#paint6_linear_213_244)"/>
<path d="M343.607 184.679C343.607 184.679 352.397 207.651 357.396 205.354C362.394 203.057 361.038 193.294 361.992 190.618C362.945 187.941 364.003 167.646 364.003 167.646C364.003 167.646 364.485 153.288 365.439 150.382C366.324 147.712 367.042 134.244 367.162 132.125C367.162 131.941 367.162 131.844 367.162 131.844L366.214 115.189L360.848 113.851L348.404 118.445L346.681 128.283L346.008 132.125L345.721 133.762L343.607 184.679Z" fill="#BE6F72"/>
<path opacity="0.1" d="M346.502 180.832C346.502 180.832 354.89 187.694 357.418 188.297C359.946 188.9 361.498 194.253 361.498 194.253" fill="black"/>
<path d="M274.865 185.684C274.865 185.684 266.075 208.656 261.077 206.359C256.078 204.062 257.434 194.299 256.48 191.623C255.527 188.946 254.469 168.65 254.469 168.65C254.469 168.65 253.987 154.293 253.033 151.387C252.148 148.717 251.43 135.249 251.31 133.13C251.31 132.946 251.31 132.849 251.31 132.849L252.263 116.194L257.629 114.856L270.074 119.45L271.797 129.288L272.47 133.13L272.757 134.767L274.865 185.684Z" fill="#BE6F72"/>
<path d="M332.105 62.7495H312.485V93.3196H332.105V62.7495Z" fill="#3E373A"/>
<path opacity="0.1" d="M332.105 62.7495H312.485V93.3196H332.105V62.7495Z" fill="black"/>
<path d="M271.418 208.565C271.418 208.565 264.713 215.933 267.201 217.271C269.688 218.609 285.781 243.689 285.781 243.689C285.781 243.689 338.637 250.196 348.605 240.433C358.574 230.669 358.372 213.228 358.372 213.228C358.372 213.228 350.364 214.951 349.49 214.015C348.617 213.079 343.82 208.565 343.82 208.565C343.82 208.565 276.014 204.453 271.418 208.565Z" fill="#4B4B5B"/>
<path opacity="0.02" d="M271.418 208.565C271.418 208.565 264.713 215.933 267.201 217.271C269.688 218.609 285.781 243.689 285.781 243.689C285.781 243.689 338.637 250.196 348.605 240.433C358.574 230.669 358.372 213.228 358.372 213.228C358.372 213.228 350.364 214.951 349.49 214.015C348.617 213.079 343.82 208.565 343.82 208.565C343.82 208.565 276.014 204.453 271.418 208.565Z" fill="black"/>
<path d="M366.571 115.43L349.335 129.213L344.124 129.592L342.211 129.73L310.078 132.085L276.755 129.65L271.797 129.288L265.477 128.829L252.263 116.194C252.263 116.194 261.617 106.178 269.809 99.4187C273.038 96.7482 276.089 94.5888 278.312 93.7388L278.691 93.6067C280.09 93.0616 281.339 92.1915 282.334 91.0683C288.803 84.4007 294.784 67.947 294.784 67.947C294.784 67.947 323.321 53.2104 319.874 72.5414C316.426 91.8724 332.703 87.0942 332.703 87.0942L338.069 89.5407L340.189 90.5113L345.595 92.9865L357.792 98.5802C367.364 102.985 366.571 115.43 366.571 115.43Z" fill="#BE6F72"/>
<path opacity="0.1" d="M308.739 83.6887C322.913 83.6887 334.403 72.203 334.403 58.0346C334.403 43.8663 322.913 32.3806 308.739 32.3806C294.565 32.3806 283.075 43.8663 283.075 58.0346C283.075 72.203 294.565 83.6887 308.739 83.6887Z" fill="black"/>
<path opacity="0.1" d="M366.611 133.704H251.31C251.31 133.521 251.31 133.423 251.31 133.423L252.263 116.768C252.263 116.768 261.617 106.752 269.809 99.9929L342.2 97.1214L345.566 93.5723L357.763 99.166C367.341 103.565 366.571 116.01 366.571 116.01C366.571 116.01 367.881 130.431 366.611 133.704Z" fill="black"/>
<path d="M366.611 133.13H251.31C251.31 132.946 251.31 132.849 251.31 132.849L252.263 116.194C252.263 116.194 261.617 106.178 269.809 99.4187L342.2 96.5472L345.566 92.998L357.763 98.5917C367.341 102.991 366.571 115.436 366.571 115.436C366.571 115.436 367.881 129.857 366.611 133.13Z" fill="#E7C7CA"/>
<path opacity="0.1" d="M290.257 86.428C290.257 86.428 308.446 109.595 332.674 85.9513C356.902 62.3073 335.357 138.689 335.357 138.689L283.075 144.892L290.257 86.428Z" fill="black"/>
<path d="M290.257 87.5766C290.257 87.5766 308.446 110.744 332.674 87.1C356.902 63.456 335.357 139.838 335.357 139.838L283.075 146.04L290.257 87.5766Z" fill="#E7C7CA"/>
<path opacity="0.1" d="M340.16 91.6424L342.085 120.983L344.147 130.747L345.721 138.212C345.721 138.212 349.743 195.643 348.594 198.514C347.445 201.386 349.169 203.683 349.41 205.21C349.651 206.738 349.169 210.574 349.358 212.297C349.548 214.02 349.358 214.784 344.957 214.17C340.556 213.555 334.42 212.487 334.42 212.487C334.42 212.487 318.908 213.635 313.548 211.723C308.188 209.811 298.036 209.805 298.036 209.805C298.036 209.805 282.713 210.19 277.738 209.615C272.762 209.041 270.073 215.743 266.822 213.825C263.57 211.907 270.648 193.345 272.946 187.981C275.244 182.617 269.884 169.029 269.884 169.029L276.778 130.798L278.312 122.132V94.8872L278.691 94.7551C280.09 94.21 281.338 93.3398 282.334 92.2167L284.057 119.634L338.063 121.552V90.6948" fill="black"/>
<path d="M340.16 90.494L342.085 119.835L344.147 129.598L345.721 137.064C345.721 137.064 349.743 194.494 348.594 197.366C347.445 200.237 349.169 202.534 349.41 204.062C349.651 205.59 349.169 209.426 349.358 211.149C349.548 212.872 349.358 213.636 344.957 213.021C340.556 212.407 334.42 211.338 334.42 211.338C334.42 211.338 318.908 212.487 313.548 210.575C308.188 208.662 298.036 208.656 298.036 208.656C298.036 208.656 282.713 209.041 277.738 208.467C272.762 207.893 270.073 214.595 266.822 212.677C263.57 210.758 270.648 192.197 272.946 186.833C275.244 181.469 269.884 167.881 269.884 167.881L276.778 129.65L278.312 120.984V93.7388L278.691 93.6067C280.09 93.0615 281.338 92.1914 282.334 91.0683L284.057 118.485L338.063 120.404V89.5464" fill="#E7C7CA"/>
<path opacity="0.1" d="M346.37 29.2618C346.043 28.0615 345.589 26.8153 344.647 26.0113C343.747 25.3655 342.708 24.9405 341.613 24.7708C338.993 24.082 336.329 23.5716 333.639 23.2432C333.255 21.9679 332.673 20.7607 331.915 19.6653C326.285 11.7169 317.954 4.2223 308.153 2.52812C303.022 1.63795 297.076 2.43623 293.79 6.47931C291.986 8.70185 291.21 11.648 289.389 13.8304C285.879 18.0687 279.542 18.5913 275.118 21.8706C272.756 23.5935 271.044 26.0917 269.372 28.5152C267.563 31.1398 265.701 33.8735 265.127 37.0091C263.978 43.2748 268.12 49.2475 268.884 55.5705C270.608 69.7156 255.44 82.2641 258.307 96.2196C259.979 104.357 267.499 110.089 275.279 112.995C278.019 114.023 281.15 115.045 282.431 117.675C283.006 118.824 283.104 120.151 283.644 121.311C285.459 125.182 291.429 125.331 294.634 122.511C297.84 119.691 298.851 115.131 299.231 110.876C300.77 92.2914 293.324 73.9309 294.192 55.3006C294.451 49.6667 296.036 43.2748 301.086 40.7249C307.883 37.2791 316.058 43.0221 323.539 41.9252C327.079 50.5347 327.83 60.0367 325.688 69.0953C324.498 74.0516 322.441 78.8585 322.292 83.9697C322.068 91.7515 326.268 98.8614 329.899 105.741C330.678 107.028 331.199 108.454 331.433 109.94C331.49 111.447 331.209 112.948 330.611 114.333C328.56 119.852 325.021 124.975 324.619 130.85C324.501 131.536 324.656 132.24 325.05 132.814C325.455 133.197 325.977 133.432 326.532 133.48C332.737 134.543 338.103 129.047 341.131 123.528C344.507 117.432 346.474 110.658 346.888 103.703C347.514 92.0099 343.32 80.5067 343.578 68.8024C343.877 55.4959 349.892 42.0974 346.37 29.2618Z" fill="black"/>
<path d="M346.945 28.6876C346.618 27.4873 346.164 26.2411 345.222 25.4371C344.322 24.7913 343.283 24.3663 342.188 24.1966C339.567 23.5078 336.903 22.9974 334.214 22.6689C333.829 21.3937 333.248 20.1865 332.49 19.091C326.86 11.1427 318.529 3.64809 308.728 1.9539C303.597 1.06373 297.651 1.86201 294.364 5.90509C292.56 8.12764 291.785 11.0738 289.963 13.2561C286.453 17.4945 280.116 18.0171 275.692 21.2964C273.331 23.0193 271.619 25.5175 269.947 27.941C268.137 30.5656 266.276 33.2993 265.701 36.4349C264.552 42.7006 268.694 48.6733 269.459 54.9964C271.182 69.1414 256.015 81.6899 258.882 95.6454C260.553 103.783 268.074 109.515 275.853 112.421C278.594 113.449 281.725 114.471 283.006 117.101C283.58 118.25 283.678 119.577 284.218 120.737C286.034 124.607 292.003 124.757 295.209 121.937C298.415 119.117 299.426 114.557 299.805 110.302C301.345 91.7172 293.899 73.3568 294.767 54.7264C295.025 49.0925 296.611 42.7006 301.661 40.1507C308.458 36.7049 316.633 42.4479 324.113 41.351C327.653 49.9605 328.405 59.4626 326.262 68.5212C325.073 73.4774 323.016 78.2843 322.867 83.3956C322.643 91.1773 326.842 98.2872 330.473 105.167C331.252 106.454 331.774 107.88 332.007 109.365C332.065 110.873 331.784 112.374 331.186 113.759C329.135 119.278 325.596 124.401 325.193 130.276C325.076 130.962 325.23 131.666 325.624 132.24C326.029 132.623 326.552 132.857 327.107 132.906C333.312 133.969 338.678 128.472 341.705 122.953C345.081 116.858 347.048 110.084 347.462 103.129C348.088 91.4358 343.894 79.9325 344.153 68.2283C344.452 54.9217 350.467 41.5233 346.945 28.6876Z" fill="#3E373A"/>
<path d="M334.254 282.971L357.045 283.7L353.776 266.804L336.316 268.464L334.254 282.971Z" fill="#C3C7D9"/>
<path d="M404.874 242.925C403.34 244.838 397.405 248.283 396.83 249.432C396.256 250.581 389.172 254.026 385.53 254.601C381.887 255.175 370.402 257.667 368.294 259.006C366.783 259.97 354.655 263.026 346.686 264.72C344.527 265.23 342.343 265.623 340.142 265.897C336.695 266.087 298.971 253.263 298.971 253.263L306.245 245.797L306.647 245.659C308.704 244.964 318.207 241.754 323.481 240.226C329.421 238.503 336.316 231.422 336.316 231.422C336.316 231.422 346.462 227.976 347.806 227.591C349.151 227.207 344.359 214.193 344.359 214.193C344.359 214.193 366.381 211.138 374.998 208.548C383.616 205.957 403.535 206.917 407.172 217.064C410.809 227.212 406.431 241.013 404.874 242.925Z" fill="#4B4B5B"/>
<path d="M304.522 275.275C304.522 275.275 300.121 279.87 295.714 279.491C291.308 279.112 275.899 280.639 275.899 280.639C273.106 281.753 270.492 283.268 268.137 285.136C264.535 287.973 262.622 285.71 262.265 285.228L262.202 285.136C260.283 291.172 255.882 286.572 255.882 286.572C255.882 286.572 257.795 268.194 257.209 265.897C256.623 263.6 260.996 259.654 260.996 259.654L266.166 258.339L279.265 254.985L298.035 261.492L304.522 275.275Z" fill="#E7C7CA"/>
<path opacity="0.1" d="M266.144 258.339L262.265 285.228L262.202 285.136C260.283 291.172 255.882 286.572 255.882 286.572C255.882 286.572 257.796 268.194 257.21 265.897C256.623 263.6 260.996 259.654 260.996 259.654L266.144 258.339Z" fill="black"/>
<path opacity="0.1" d="M293.25 181.854C293.25 181.854 303.396 185.3 312.209 181.854H293.25Z" fill="black"/>
<path opacity="0.1" d="M327.888 188.366C327.888 188.366 332.099 190.469 335.357 188.366H327.888Z" fill="black"/>
<path opacity="0.1" d="M327.888 193.351C327.888 193.351 334.972 194.299 336.316 192.386L327.888 193.351Z" fill="black"/>
<path opacity="0.1" d="M325.589 204.062C325.589 204.062 338.895 202.339 342.199 200.042L325.589 204.062Z" fill="black"/>
<path opacity="0.1" d="M284.988 200.042C284.988 200.042 292.457 204.251 298.012 204.062L284.988 200.042Z" fill="black"/>
<path opacity="0.1" d="M346.68 264.72C344.522 265.23 342.337 265.623 340.136 265.897C336.689 266.087 298.966 253.262 298.966 253.262L306.239 245.797L306.641 245.659C307.791 246.468 308.733 247.163 309.405 247.692C312.571 250.184 315.627 246.928 316.776 246.928C317.925 246.928 327.882 255.158 327.882 255.158C327.882 255.158 337.074 257.265 338.608 259.178C340.142 261.09 345.502 260.711 346.456 262.049C346.743 262.463 346.778 263.479 346.68 264.72Z" fill="black"/>
<path d="M275.899 214.974C275.899 214.974 266.603 215.508 261.242 213.251C255.882 210.994 238.072 205.785 232.901 209.443C227.73 213.102 215.28 216.335 221.026 230.888C226.771 245.44 229.454 245.819 229.454 245.819C231.232 247.152 232.783 248.761 234.05 250.586C235.774 253.268 251.86 259.39 255.882 259.39C259.904 259.39 266.988 259.39 276.944 266.282C286.901 273.173 295.904 273.943 295.904 273.943C295.904 273.943 308.543 279.112 312.479 280.26C316.414 281.409 334.397 286.382 338.614 284.855C342.831 283.327 345.508 273.748 345.508 273.748C345.508 273.748 347.421 265.133 346.462 263.795C345.502 262.457 340.142 262.836 338.614 260.924C337.086 259.011 327.887 256.903 327.887 256.903C327.887 256.903 317.954 248.668 316.805 248.668C315.656 248.668 312.599 251.919 309.434 249.432C303.128 244.763 296.503 240.541 289.607 236.797C282.333 232.967 275.899 214.974 275.899 214.974Z" fill="#4B4B5B"/>
<path opacity="0.1" d="M257.21 220.527C258.865 220.189 260.576 220.238 262.209 220.669C263.843 221.1 265.354 221.903 266.626 223.014C271.223 226.844 286.689 234.534 286.689 234.534" fill="black"/>
<path opacity="0.1" d="M372.126 220.286C372.126 220.286 351.633 223.387 347.806 227.597L372.126 220.286Z" fill="black"/>
<path d="M395.681 283.7H394.779C391.539 283.585 380.56 283.241 378.446 283.7C375.958 284.274 343.015 283.7 343.015 283.7L349.455 282.362C349.455 282.362 347.065 273.989 348.582 273.294C348.582 273.294 339.964 267.62 346.462 263.789C352.96 259.959 359.963 261.572 359.963 261.572L376.274 256.048L379.405 254.985C379.405 254.985 397.79 255.944 402.765 268.579C407.741 281.213 395.681 283.7 395.681 283.7Z" fill="#E7C7CA"/>
<path opacity="0.1" d="M395.682 283.7H394.78C400.129 279.29 412.228 265.863 376.274 256.076L379.405 255.014C379.405 255.014 397.79 255.973 402.766 268.608C407.741 281.242 395.682 283.7 395.682 283.7Z" fill="black"/>
<path d="M361.883 268.814C362.438 268.814 362.888 268.364 362.888 267.809C362.888 267.254 362.438 266.804 361.883 266.804C361.328 266.804 360.878 267.254 360.878 267.809C360.878 268.364 361.328 268.814 361.883 268.814Z" fill="#4B4B5B"/>
<path d="M356.04 270.474C356.595 270.474 357.045 270.024 357.045 269.469C357.045 268.914 356.595 268.464 356.04 268.464C355.485 268.464 355.034 268.914 355.034 269.469C355.034 270.024 355.485 270.474 356.04 270.474Z" fill="#4B4B5B"/>
<g opacity="0.1">
<path opacity="0.1" d="M327.572 57.087C327.795 50.7702 326.671 44.4782 324.274 38.629C316.805 39.7431 308.624 33.9829 301.822 37.4287C296.789 39.9786 295.209 46.3706 294.928 52.0045C294.859 53.4919 294.847 54.9793 294.876 56.4668C294.876 55.9384 294.876 55.4043 294.928 54.876C295.192 49.2421 296.772 42.8501 301.822 40.3002C308.624 36.8544 316.794 42.5974 324.274 41.5005C326.304 46.455 327.421 51.7354 327.572 57.087Z" fill="black"/>
<path opacity="0.1" d="M269.694 56.0359C269.793 54.7845 269.768 53.5265 269.62 52.28C269.011 47.2261 266.247 42.3962 265.747 37.4688C265.104 43.4128 268.89 49.1213 269.62 55.1515C269.694 55.4616 269.694 55.7373 269.694 56.0359Z" fill="black"/>
<path opacity="0.1" d="M299.966 107.574C299.61 111.835 298.604 116.389 295.37 119.215C292.135 122.04 286.177 121.885 284.379 118.015C283.805 116.866 283.718 115.528 283.161 114.379C281.886 111.749 278.749 110.727 276.008 109.699C268.223 106.787 260.714 101.084 259.043 92.9234C258.893 92.1841 258.791 91.4359 258.738 90.6836C258.597 92.3932 258.699 94.1141 259.043 95.7949C260.714 103.933 268.235 109.659 276.008 112.57C278.749 113.598 281.886 114.62 283.161 117.251C283.736 118.399 283.833 119.726 284.379 120.886C286.189 124.757 292.158 124.906 295.37 122.086C298.581 119.267 299.581 114.707 299.966 110.445C300.141 108.202 300.2 105.952 300.144 103.703C300.144 105.007 300.069 106.293 299.966 107.574Z" fill="black"/>
<path opacity="0.1" d="M344.342 65.5063C344.342 66.339 344.342 67.166 344.342 67.993C344.664 57.311 348.582 46.5715 348.197 36.1135C347.899 45.7848 344.561 55.6742 344.342 65.5063Z" fill="black"/>
<path opacity="0.1" d="M332.013 108.717C332.154 108.035 332.199 107.337 332.145 106.643C331.914 105.157 331.393 103.731 330.611 102.445C327.291 96.128 323.504 89.6614 323.056 82.6492C323.056 82.9478 323.016 83.2235 323.01 83.5451C322.78 91.3211 326.98 98.4367 330.611 105.317C331.228 106.382 331.7 107.526 332.013 108.717Z" fill="black"/>
<path opacity="0.1" d="M347.646 100.406C347.217 107.364 345.237 114.138 341.849 120.231C338.816 125.75 333.455 131.246 327.245 130.184C326.688 130.136 326.165 129.899 325.762 129.512C325.646 129.38 325.554 129.229 325.492 129.064C325.423 129.512 325.366 129.966 325.332 130.425C325.213 131.109 325.367 131.812 325.762 132.384C326.165 132.77 326.688 133.007 327.245 133.055C333.455 134.118 338.816 128.622 341.849 123.103C345.237 117.009 347.217 110.236 347.646 103.278C347.715 101.934 347.721 100.596 347.681 99.2578C347.669 99.6426 347.669 100.022 347.646 100.406Z" fill="black"/>
</g>
<path opacity="0.1" d="M348.583 273.294C348.583 273.294 363.124 279.393 372.713 265.897" stroke="black" stroke-miterlimit="10"/>
<path opacity="0.1" d="M351.444 283.953C351.444 283.953 363.319 276.234 378.446 283.7" stroke="black" stroke-miterlimit="10"/>
<path opacity="0.1" d="M271.952 282.202C271.952 282.202 276.939 270.957 290.256 279.531" stroke="black" stroke-miterlimit="10"/>
<path opacity="0.1" d="M255.785 115.907L265.954 106.718C265.954 106.718 305.384 104.134 307.015 117.532C307.015 117.532 320.994 101.647 350.392 105.185L362.831 115.086L328.451 130.167L295.042 141.75L270.435 130.741L255.785 115.907Z" fill="black"/>
<path d="M255.785 116.481L265.954 107.292C265.954 107.292 305.384 104.708 307.015 118.107C307.015 118.107 320.994 102.221 350.392 105.759L362.831 115.66L328.451 130.741L295.042 142.325L270.435 131.315L255.785 116.481Z" fill="#D5D6DB"/>
<path opacity="0.1" d="M251.287 117.63L255.785 171.425L303.471 173.819L301.402 120.254L301.362 119.353L251.287 117.63Z" fill="black"/>
<path d="M251.287 116.481L255.785 170.276L303.471 172.671L301.402 119.106L301.362 118.204L251.287 116.481Z" fill="#F2F2F2"/>
<path opacity="0.1" d="M365.014 116.481L315.823 123.855V177.891L363.893 170.948L365.014 116.481Z" fill="black"/>
<path d="M365.014 115.333L315.823 122.707V176.743L363.893 169.799L365.014 115.333Z" fill="#F2F2F2"/>
<path opacity="0.3" d="M353.414 128.518L326.842 131.47L327.422 140.521L353.396 137.684L353.414 128.518Z" fill="#44CAEC"/>
<path d="M258.37 199.083L261.076 206.359C261.076 206.359 265.098 209.805 269.499 208.082C273.9 206.359 277.738 205.504 279.651 203.827C281.564 202.15 284.247 193.725 284.247 193.725C284.247 193.725 286.93 184.536 289.607 182.239C292.285 179.941 299.374 148.292 289.607 151.387C279.84 154.483 272.371 183.198 272.371 183.198C272.371 183.198 270.648 185.3 268.16 185.495C265.673 185.69 260.691 185.11 259.732 187.218C258.772 189.326 255.498 194.873 258.37 199.083Z" fill="#BE6F72"/>
<path opacity="0.1" d="M315.822 123.85C313.304 124.417 310.687 124.387 308.182 123.763C305.677 123.139 303.353 121.937 301.396 120.254L303.47 173.814C303.47 173.814 308.353 179.097 315.822 177.891V123.85Z" fill="black"/>
<path d="M315.822 122.701C313.304 123.268 310.687 123.238 308.182 122.614C305.677 121.99 303.353 120.788 301.396 119.106L303.47 172.665C303.47 172.665 308.353 177.949 315.822 176.743V122.701Z" fill="#C4C8C0"/>
<path opacity="0.1" d="M315.822 122.701C313.304 123.268 310.687 123.238 308.182 122.614C305.677 121.99 303.353 120.788 301.396 119.106L303.47 172.665C303.47 172.665 308.353 177.949 315.822 176.743V122.701Z" fill="black"/>
<path opacity="0.1" d="M316.971 116.665C316.971 116.665 336.982 110.549 342.199 111.41L316.971 116.665Z" fill="black"/>
<path opacity="0.1" d="M294.589 113.994C294.589 113.994 275.192 109.4 271.952 110.704L294.589 113.994Z" fill="black"/>
<path opacity="0.1" d="M329.589 117.429C329.589 117.429 342.969 112.524 347.807 114.856L329.589 117.429Z" fill="black"/>
<path opacity="0.1" d="M322.849 240.461C324.923 238.905 327.13 237.534 329.445 236.366C332.892 234.707 339.212 230.399 339.212 230.399" fill="black"/>
<path opacity="0.1" d="M271.952 181.854C271.952 181.854 263.558 188.717 261.036 189.32C258.514 189.923 256.957 195.275 256.957 195.275" fill="black"/>
<path d="M360.078 198.061L357.401 205.354C357.401 205.354 353.379 208.8 348.973 207.077C344.566 205.354 340.74 204.498 338.821 202.821C336.902 201.145 334.225 192.72 334.225 192.72C334.225 192.72 331.547 183.531 328.864 181.234C326.181 178.936 319.097 147.287 328.864 150.382C338.631 153.478 346.1 182.193 346.1 182.193C346.1 182.193 347.824 184.295 350.311 184.49C352.799 184.685 357.78 184.105 358.74 186.213C359.699 188.32 362.951 193.868 360.078 198.061Z" fill="#BE6F72"/>
<path opacity="0.1" d="M355.385 184.645C355.385 184.645 360.871 188.171 360.848 192.386L355.385 184.645Z" fill="black"/>
<path d="M308.831 82.4308C323.005 82.4308 334.495 70.9451 334.495 56.7768C334.495 42.6085 323.005 31.1228 308.831 31.1228C294.657 31.1228 283.167 42.6085 283.167 56.7768C283.167 70.9451 294.657 82.4308 308.831 82.4308Z" fill="#BE6F72"/>
<path d="M292.716 49.8909C295.829 49.4027 298.558 47.5937 301.535 46.5542C308.193 44.2168 315.559 45.8191 322.298 47.9268C324.883 48.7365 327.509 49.6497 330.221 49.6497C332.932 49.6497 335.811 48.5413 337.195 46.2039C338.471 44.056 338.224 41.2649 337.149 39.0079C336.075 36.7509 334.277 34.9361 332.461 33.2246C326.486 27.585 319.075 22.3129 310.876 22.8872C307.579 23.1227 304.424 24.3 301.391 25.6037C297.571 27.249 293.853 29.1208 290.257 31.2088C287.493 32.8112 282.374 34.9533 280.783 37.8822C277.163 44.481 287.085 50.7753 292.716 49.8909Z" fill="#3E373A"/>
<path opacity="0.1" d="M337.195 43.7919C335.81 46.1293 332.932 47.2377 330.22 47.2377C327.508 47.2377 324.883 46.359 322.292 45.5492C315.553 43.4415 308.193 41.8335 301.528 44.1767C298.558 45.2161 295.823 47.0482 292.709 47.5076C288.171 48.2197 280.863 44.2685 280.07 39.2434C279.179 45.0496 287.654 50.023 292.709 49.2305C295.823 48.7423 298.558 46.9333 301.528 45.8996C308.193 43.5564 315.553 45.1644 322.292 47.2721C324.883 48.0819 327.503 48.995 330.22 48.9606C332.938 48.9261 335.81 47.8579 337.195 45.5148C337.913 44.2401 338.195 42.7662 337.999 41.3166C337.91 42.1894 337.636 43.0331 337.195 43.7919Z" fill="black"/>
<path d="M527.461 355.034C527.461 355.034 524.054 359.485 529.035 366.21C534.016 372.935 538.118 378.609 536.458 382.802C536.458 382.802 528.949 370.316 522.83 370.138C516.711 369.96 520.762 362.54 527.461 355.034Z" fill="#82C041"/>
<path opacity="0.1" d="M527.461 355.034C527.164 355.464 526.93 355.934 526.766 356.43C520.802 363.436 517.619 369.977 523.359 370.138C528.696 370.293 535.108 379.844 536.642 382.25C536.593 382.446 536.532 382.638 536.458 382.825C536.458 382.825 528.949 370.339 522.83 370.161C516.711 369.983 520.762 362.54 527.461 355.034Z" fill="black"/>
<path d="M521.129 360.708C521.129 362.276 521.302 363.545 521.52 363.545C521.738 363.545 521.917 362.276 521.917 360.708C521.917 359.141 521.692 359.881 521.48 359.881C521.267 359.881 521.129 359.141 521.129 360.708Z" fill="#FFD037"/>
<path d="M518.958 362.581C520.331 363.327 521.532 363.781 521.635 363.591C521.739 363.402 520.71 362.638 519.337 361.869C517.964 361.099 518.504 361.662 518.401 361.869C518.297 362.075 517.579 361.828 518.958 362.581Z" fill="#FFD037"/>
<path opacity="0.1" d="M536.464 416.869C556.137 416.869 572.085 414.424 572.085 411.408C572.085 408.391 556.137 405.946 536.464 405.946C516.791 405.946 500.844 408.391 500.844 411.408C500.844 414.424 516.791 416.869 536.464 416.869Z" fill="#82C041"/>
<path d="M554.797 376.8L554.625 378.19L554.384 380.154L554.286 380.976L554.045 382.94L553.941 383.761L553.706 385.719L550.977 408.06C550.735 410.052 547.478 411.609 543.542 411.609H529.38C525.445 411.609 522.193 410.052 521.946 408.06L519.217 385.719L518.975 383.761L518.878 382.94L518.636 380.976L518.533 380.154L518.298 378.19L518.125 376.8C517.993 375.652 519.751 374.721 521.98 374.721H550.948C553.171 374.721 554.935 375.669 554.797 376.8Z" fill="#65617D"/>
<path d="M554.626 378.19L554.39 380.154H518.539L518.298 378.19H554.626Z" fill="#9D9CB5"/>
<path d="M554.286 380.975L554.05 382.939H518.878L518.636 380.975H554.286Z" fill="#9D9CB5"/>
<path d="M553.946 383.761L553.705 385.725H519.216L518.981 383.761H553.946Z" fill="#9D9CB5"/>
<defs>
<linearGradient id="paint0_linear_213_244" x1="33.989" y1="323.551" x2="184.723" y2="530.503" gradientUnits="userSpaceOnUse">
<stop stop-color="#80FF72"/>
<stop offset="1" stop-color="#31DEFC"/>
</linearGradient>
<linearGradient id="paint1_linear_213_244" x1="28.5706" y1="349.774" x2="222.447" y2="484.828" gradientUnits="userSpaceOnUse">
<stop stop-color="#80FF72"/>
<stop offset="1" stop-color="#31DEFC"/>
</linearGradient>
<linearGradient id="paint2_linear_213_244" x1="36.04" y1="394.219" x2="138.394" y2="579.334" gradientUnits="userSpaceOnUse">
<stop stop-color="#80FF72"/>
<stop offset="1" stop-color="#31DEFC"/>
</linearGradient>
<linearGradient id="paint3_linear_213_244" x1="96.4573" y1="205.125" x2="247.19" y2="412.078" gradientUnits="userSpaceOnUse">
<stop stop-color="#80FF72"/>
<stop offset="1" stop-color="#31DEFC"/>
</linearGradient>
<linearGradient id="paint4_linear_213_244" x1="91.0227" y1="231.347" x2="284.902" y2="366.41" gradientUnits="userSpaceOnUse">
<stop stop-color="#80FF72"/>
<stop offset="1" stop-color="#31DEFC"/>
</linearGradient>
<linearGradient id="paint5_linear_213_244" x1="98.5083" y1="280.387" x2="187.989" y2="456.766" gradientUnits="userSpaceOnUse">
<stop stop-color="#80FF72"/>
<stop offset="1" stop-color="#31DEFC"/>
</linearGradient>
<linearGradient id="paint6_linear_213_244" x1="314.059" y1="288.249" x2="314.059" y2="-0.00432967" gradientUnits="userSpaceOnUse">
<stop stop-color="#808080" stop-opacity="0.25"/>
<stop offset="0.54" stop-color="#808080" stop-opacity="0.12"/>
<stop offset="1" stop-color="#808080" stop-opacity="0.1"/>
</linearGradient>
</defs>
</svg>
