<svg width="478" height="479" viewBox="0 0 478 479" fill="none" xmlns="http://www.w3.org/2000/svg">
<g clip-path="url(#clip0_214_635)">
<path d="M45.9673 403.516L41.7575 386.927C34.2933 383.767 26.6567 381.029 18.8839 378.728L18.3525 386.438L16.1976 377.944C6.55795 375.191 0 373.98 0 373.98C0 373.98 8.85602 407.634 27.437 433.363L49.0855 437.162L32.2674 439.585C34.6047 442.395 37.1165 445.055 39.788 447.55C66.8149 472.614 96.9184 484.114 107.025 473.235C117.132 462.355 103.415 433.218 76.3885 408.156C68.0099 400.386 57.4847 394.151 46.9485 389.242L45.9673 403.516Z" fill="#F2F2F2"/>
<path d="M86.0031 385.498L90.9817 369.124C86.2276 362.563 81.1069 356.276 75.6441 350.292L71.2006 356.617L73.7497 348.233C66.9209 340.901 61.9339 336.477 61.9339 336.477C61.9339 336.477 52.1056 369.861 54.6983 401.481L71.2648 415.914L55.6115 409.302C56.1592 412.915 56.9338 416.49 57.9307 420.006C68.0997 455.42 87.9199 480.811 102.2 476.717C116.48 472.624 119.813 440.597 109.644 405.183C106.492 394.205 100.707 383.431 94.2276 373.789L86.0031 385.498Z" fill="#F2F2F2"/>
<path d="M333.546 113.475H330.92V41.6007C330.92 36.1376 329.843 30.7281 327.75 25.6808C325.658 20.6336 322.591 16.0476 318.724 12.1846C314.858 8.32159 310.268 5.2573 305.216 3.16666C300.164 1.07603 294.75 0 289.282 0H136.864C125.82 0 115.23 4.38292 107.421 12.1846C99.6123 19.9862 95.2255 30.5675 95.2255 41.6007V435.918C95.2255 441.381 96.3025 446.79 98.395 451.837C100.487 456.885 103.555 461.471 107.421 465.334C111.287 469.197 115.878 472.261 120.929 474.352C125.981 476.442 131.396 477.518 136.864 477.518H289.282C300.325 477.518 310.915 473.135 318.724 465.333C326.532 457.532 330.919 446.951 330.919 435.918V164.637H333.545L333.546 113.475Z" fill="#787878"/>
<path d="M290.962 10.8191H271.068C271.983 13.0603 272.332 15.492 272.085 17.8999C271.837 20.3078 271.001 22.6179 269.65 24.6268C268.298 26.6358 266.473 28.2818 264.335 29.4198C262.197 30.5579 259.811 31.1531 257.388 31.153H170.07C167.647 31.1529 165.262 30.5575 163.124 29.4194C160.986 28.2812 159.161 26.6352 157.81 24.6263C156.458 22.6174 155.622 20.3074 155.375 17.8996C155.128 15.4918 155.477 13.0602 156.392 10.8191H137.81C129.563 10.8191 121.654 14.0922 115.822 19.9184C109.991 25.7446 106.715 33.6466 106.715 41.8861V435.63C106.715 443.87 109.991 451.772 115.822 457.598C121.654 463.424 129.563 466.697 137.81 466.697H290.962C299.209 466.697 307.118 463.424 312.949 457.598C318.781 451.772 322.057 443.87 322.057 435.63V41.8855C322.057 33.6461 318.781 25.7442 312.949 19.9182C307.118 14.0921 299.209 10.8191 290.962 10.8191Z" fill="#212121"/>
<path d="M194.87 167.667C194.87 164.914 195.595 162.211 196.973 159.827C198.35 157.444 200.332 155.466 202.719 154.091C200.333 152.714 197.627 151.99 194.873 151.989C192.119 151.989 189.413 152.713 187.027 154.089C184.641 155.465 182.66 157.444 181.283 159.827C179.906 162.21 179.181 164.914 179.181 167.666C179.181 170.418 179.906 173.121 181.283 175.505C182.66 177.888 184.641 179.867 187.027 181.243C189.413 182.618 192.119 183.343 194.873 183.342C197.627 183.342 200.333 182.617 202.719 181.241C200.332 179.866 198.351 177.888 196.973 175.505C195.595 173.122 194.87 170.419 194.87 167.667Z" fill="#CCCCCC"/>
<path d="M214.595 167.667C214.595 164.914 215.32 162.211 216.698 159.827C218.075 157.444 220.057 155.465 222.444 154.091C220.058 152.714 217.353 151.99 214.598 151.989C211.844 151.989 209.138 152.713 206.752 154.089C204.367 155.465 202.386 157.444 201.008 159.827C199.631 162.21 198.906 164.914 198.906 167.666C198.906 170.418 199.631 173.121 201.008 175.505C202.386 177.888 204.367 179.867 206.752 181.243C209.138 182.618 211.844 183.343 214.598 183.342C217.353 183.342 220.058 182.617 222.444 181.241C220.057 179.866 218.076 177.888 216.698 175.505C215.32 173.122 214.595 170.419 214.595 167.667Z" fill="#CCCCCC"/>
<path d="M233.872 183.342C242.538 183.342 249.563 176.324 249.563 167.666C249.563 159.008 242.538 151.99 233.872 151.99C225.207 151.99 218.182 159.008 218.182 167.666C218.182 176.324 225.207 183.342 233.872 183.342Z" fill="url(#paint0_linear_214_635)"/>
<path d="M260.095 216.63H168.647C167.777 216.629 166.942 216.283 166.326 215.668C165.711 215.053 165.364 214.219 165.363 213.349V121.983C165.364 121.113 165.711 120.279 166.326 119.664C166.942 119.049 167.777 118.703 168.647 118.702H260.095C260.966 118.703 261.801 119.049 262.416 119.664C263.032 120.279 263.378 121.113 263.379 121.983V213.349C263.378 214.219 263.032 215.053 262.416 215.668C261.801 216.283 260.966 216.629 260.095 216.63ZM168.647 120.015C168.125 120.016 167.624 120.223 167.255 120.592C166.885 120.961 166.678 121.462 166.677 121.984V213.35C166.678 213.872 166.885 214.372 167.255 214.741C167.624 215.11 168.125 215.318 168.647 215.318H260.095C260.618 215.318 261.119 215.11 261.488 214.741C261.857 214.372 262.065 213.872 262.066 213.35V121.984C262.065 121.462 261.857 120.961 261.488 120.592C261.119 120.223 260.618 120.016 260.095 120.015H168.647Z" fill="#CCCCCC"/>
<path d="M280.514 286.666H140.26V287.979H280.514V286.666Z" fill="#CCCCCC"/>
<path d="M144.69 278.472C147.136 278.472 149.119 276.491 149.119 274.047C149.119 271.603 147.136 269.622 144.69 269.622C142.243 269.622 140.26 271.603 140.26 274.047C140.26 276.491 142.243 278.472 144.69 278.472Z" fill="url(#paint1_linear_214_635)"/>
<path d="M280.514 330.917H140.26V332.229H280.514V330.917Z" fill="#CCCCCC"/>
<path d="M144.69 322.724C147.136 322.724 149.119 320.742 149.119 318.298C149.119 315.854 147.136 313.873 144.69 313.873C142.243 313.873 140.26 315.854 140.26 318.298C140.26 320.742 142.243 322.724 144.69 322.724Z" fill="url(#paint2_linear_214_635)"/>
<path d="M277.948 381.308H233.624C232.858 381.307 232.124 381.003 231.582 380.462C231.041 379.921 230.737 379.187 230.736 378.422V362.901C230.737 362.136 231.041 361.403 231.582 360.862C232.124 360.321 232.858 360.017 233.624 360.016H277.948C278.713 360.017 279.447 360.321 279.989 360.862C280.53 361.403 280.835 362.136 280.835 362.901V378.422C280.835 379.187 280.53 379.921 279.989 380.462C279.447 381.003 278.713 381.307 277.948 381.308Z" fill="url(#paint3_linear_214_635)"/>
<path d="M159.138 278.472C161.584 278.472 163.567 276.491 163.567 274.047C163.567 271.603 161.584 269.622 159.138 269.622C156.692 269.622 154.708 271.603 154.708 274.047C154.708 276.491 156.692 278.472 159.138 278.472Z" fill="url(#paint4_linear_214_635)"/>
<path d="M173.586 278.472C176.032 278.472 178.015 276.491 178.015 274.047C178.015 271.603 176.032 269.622 173.586 269.622C171.14 269.622 169.157 271.603 169.157 274.047C169.157 276.491 171.14 278.472 173.586 278.472Z" fill="url(#paint5_linear_214_635)"/>
<path d="M159.138 322.724C161.584 322.724 163.567 320.742 163.567 318.298C163.567 315.854 161.584 313.873 159.138 313.873C156.692 313.873 154.708 315.854 154.708 318.298C154.708 320.742 156.692 322.724 159.138 322.724Z" fill="url(#paint6_linear_214_635)"/>
<path d="M173.586 322.724C176.032 322.724 178.015 320.742 178.015 318.298C178.015 315.854 176.032 313.873 173.586 313.873C171.14 313.873 169.157 315.854 169.157 318.298C169.157 320.742 171.14 322.724 173.586 322.724Z" fill="url(#paint7_linear_214_635)"/>
<path d="M476.215 479H15.4531C14.4667 479 13.6677 478.65 13.6677 478.219C13.6677 477.788 14.4667 477.438 15.4531 477.438H476.215C477.2 477.438 478 477.788 478 478.219C478 478.651 477.2 479 476.215 479Z" fill="#3F3D56"/>
<path d="M362.376 313.826C362.691 313.97 362.994 314.138 363.282 314.331L392.065 302.057L393.093 294.481L404.594 294.411L403.914 311.785L365.923 321.823C365.843 322.087 365.748 322.346 365.636 322.598C365.087 323.769 364.204 324.752 363.097 325.423C361.991 326.094 360.71 326.423 359.417 326.37C358.124 326.316 356.875 325.882 355.828 325.122C354.781 324.362 353.982 323.31 353.532 322.097C353.081 320.885 352.999 319.567 353.296 318.308C353.593 317.049 354.256 315.906 355.201 315.023C356.146 314.139 357.331 313.554 358.608 313.341C359.884 313.128 361.195 313.297 362.376 313.826Z" fill="#FFB8B8"/>
<path d="M408.777 471.27H400.909L397.166 440.951L408.778 440.951L408.777 471.27Z" fill="#FFB8B8"/>
<path d="M395.289 469.024H410.462V478.569H385.736C385.736 476.037 386.742 473.61 388.534 471.82C390.325 470.03 392.755 469.024 395.289 469.024Z" fill="#2F2E41"/>
<path d="M439.375 469.049L431.545 469.82L424.845 440.013L436.4 438.876L439.375 469.049Z" fill="#FFB8B8"/>
<path d="M425.732 468.135L440.832 466.649L441.769 476.148L417.161 478.569C417.038 477.322 417.162 476.062 417.527 474.863C417.891 473.663 418.488 472.547 419.284 471.578C420.08 470.61 421.059 469.807 422.165 469.216C423.272 468.625 424.484 468.258 425.732 468.135Z" fill="#2F2E41"/>
<path d="M410.967 262.323C419.672 262.323 426.728 255.273 426.728 246.575C426.728 237.878 419.672 230.828 410.967 230.828C402.262 230.828 395.205 237.878 395.205 246.575C395.205 255.273 402.262 262.323 410.967 262.323Z" fill="#FFB8B8"/>
<path d="M399.151 465.139C398.475 465.14 397.82 464.904 397.301 464.47C396.783 464.036 396.434 463.433 396.317 462.768C392.245 440.183 378.934 366.333 378.616 364.288C378.609 364.241 378.605 364.193 378.606 364.146V358.639C378.605 358.439 378.668 358.243 378.785 358.08L380.543 355.62C380.627 355.501 380.737 355.404 380.864 355.334C380.991 355.265 381.132 355.225 381.277 355.219C391.303 354.749 424.135 353.373 425.722 355.353C427.315 357.343 426.752 363.372 426.623 364.56L426.629 364.684L441.38 458.932C441.495 459.684 441.31 460.451 440.864 461.067C440.417 461.683 439.746 462.099 438.996 462.225L429.783 463.741C429.096 463.851 428.394 463.712 427.802 463.348C427.21 462.984 426.768 462.42 426.558 461.758C423.708 452.661 414.153 422.058 410.842 410.217C410.821 410.142 410.774 410.077 410.709 410.034C410.644 409.992 410.565 409.974 410.488 409.985C410.411 409.996 410.341 410.035 410.29 410.094C410.239 410.153 410.212 410.228 410.213 410.306C410.378 421.594 410.778 450.394 410.916 460.341L410.931 461.412C410.937 462.137 410.671 462.838 410.184 463.377C409.698 463.915 409.027 464.252 408.304 464.32L399.42 465.127C399.33 465.135 399.24 465.139 399.151 465.139Z" fill="#2F2E41"/>
<path d="M400.963 268.515C398.213 270.149 396.567 273.151 395.622 276.206C393.874 281.862 392.821 287.71 392.488 293.62L391.489 311.316L379.133 358.23C389.843 367.284 396.02 365.226 410.437 357.821C424.854 350.415 426.501 360.29 426.501 360.29L429.384 320.372L433.503 276.752C432.579 275.64 431.532 274.634 430.383 273.755C426.576 270.797 422.147 268.741 417.429 267.742C412.711 266.743 407.827 266.827 403.146 267.987L400.963 268.515Z" fill="#F6E29E"/>
<path d="M396.95 323.301C397.282 323.426 397.604 323.577 397.913 323.752L426.373 309.52L426.845 301.81L438.585 301.001L439.214 318.577L401.181 331.143C400.87 332.474 400.162 333.679 399.149 334.598C398.137 335.516 396.868 336.105 395.512 336.286C394.157 336.466 392.778 336.231 391.56 335.609C390.341 334.988 389.341 334.011 388.692 332.808C388.043 331.605 387.776 330.234 387.927 328.875C388.077 327.517 388.638 326.237 389.534 325.205C390.43 324.173 391.62 323.438 392.945 323.098C394.269 322.757 395.666 322.828 396.95 323.301Z" fill="#FFB8B8"/>
<path d="M433.297 276.951C440.3 279.421 441.533 306.172 441.533 306.172C433.295 301.645 423.409 309.053 423.409 309.053C423.409 309.053 421.35 302.057 418.878 293.003C418.132 290.456 418.043 287.762 418.619 285.172C419.195 282.582 420.418 280.179 422.173 278.188C422.173 278.188 426.295 274.481 433.297 276.951Z" fill="#F6E29E"/>
<path d="M425.099 250.74C423.136 249.17 420.456 252.023 420.456 252.023L418.885 237.896C418.885 237.896 409.066 239.071 402.782 237.504C396.497 235.937 395.515 243.195 395.515 243.195C395.191 240.263 395.126 237.308 395.319 234.365C395.712 230.833 400.818 227.302 409.851 224.947C418.885 222.592 423.598 232.795 423.598 232.795C429.883 235.934 427.063 252.31 425.099 250.74Z" fill="#2F2E41"/>
<path d="M191 14.4113C191.001 13.5069 191.361 12.6399 192 12.0003C192.639 11.3608 193.505 11.0011 194.409 11H217.59C218.038 10.9993 218.482 11.0871 218.896 11.2582C219.31 11.4294 219.687 11.6805 220.004 11.9974C220.321 12.3142 220.573 12.6905 220.744 13.1047C220.916 13.5189 221.004 13.9629 221.004 14.4114C221.004 14.8598 220.916 15.3038 220.744 15.718C220.573 16.1322 220.321 16.5085 220.004 16.8253C219.687 17.1422 219.31 17.3934 218.896 17.5645C218.482 17.7356 218.038 17.8234 217.59 17.8227H194.409C193.505 17.8216 192.639 17.4619 192 16.8224C191.361 16.1828 191.001 15.3158 191 14.4113Z" fill="white"/>
<path d="M230.544 17.8227C232.427 17.8227 233.953 16.2954 233.953 14.4113C233.953 12.5273 232.427 11 230.544 11C228.662 11 227.135 12.5273 227.135 14.4113C227.135 16.2954 228.662 17.8227 230.544 17.8227Z" fill="white"/>
</g>
<defs>
<linearGradient id="paint0_linear_214_635" x1="218.182" y1="151.99" x2="255.599" y2="163.206" gradientUnits="userSpaceOnUse">
<stop stop-color="#80FF72"/>
<stop offset="1" stop-color="#31DEFC"/>
</linearGradient>
<linearGradient id="paint1_linear_214_635" x1="140.26" y1="269.622" x2="150.823" y2="272.788" gradientUnits="userSpaceOnUse">
<stop stop-color="#80FF72"/>
<stop offset="1" stop-color="#31DEFC"/>
</linearGradient>
<linearGradient id="paint2_linear_214_635" x1="140.26" y1="313.873" x2="150.823" y2="317.039" gradientUnits="userSpaceOnUse">
<stop stop-color="#80FF72"/>
<stop offset="1" stop-color="#31DEFC"/>
</linearGradient>
<linearGradient id="paint3_linear_214_635" x1="230.736" y1="360.016" x2="274.236" y2="390.672" gradientUnits="userSpaceOnUse">
<stop stop-color="#80FF72"/>
<stop offset="1" stop-color="#31DEFC"/>
</linearGradient>
<linearGradient id="paint4_linear_214_635" x1="154.708" y1="269.622" x2="165.271" y2="272.788" gradientUnits="userSpaceOnUse">
<stop stop-color="#80FF72"/>
<stop offset="1" stop-color="#31DEFC"/>
</linearGradient>
<linearGradient id="paint5_linear_214_635" x1="169.157" y1="269.622" x2="179.719" y2="272.788" gradientUnits="userSpaceOnUse">
<stop stop-color="#80FF72"/>
<stop offset="1" stop-color="#31DEFC"/>
</linearGradient>
<linearGradient id="paint6_linear_214_635" x1="154.708" y1="313.873" x2="165.271" y2="317.039" gradientUnits="userSpaceOnUse">
<stop stop-color="#80FF72"/>
<stop offset="1" stop-color="#31DEFC"/>
</linearGradient>
<linearGradient id="paint7_linear_214_635" x1="169.157" y1="313.873" x2="179.719" y2="317.039" gradientUnits="userSpaceOnUse">
<stop stop-color="#80FF72"/>
<stop offset="1" stop-color="#31DEFC"/>
</linearGradient>
<clipPath id="clip0_214_635">
<rect width="478" height="479" fill="white"/>
</clipPath>
</defs>
</svg>
