<svg width="575" height="464" viewBox="0 0 575 464" fill="none" xmlns="http://www.w3.org/2000/svg">
<g clip-path="url(#clip0_213_458)">
<path d="M209.235 351.216C207.494 347.044 207.302 342.386 208.695 338.086C210.088 333.785 212.973 330.124 216.829 327.765C218.113 326.984 216.94 324.961 215.649 325.746C211.226 328.387 207.925 332.558 206.371 337.469C204.816 342.38 205.117 347.691 207.215 352.396C207.805 353.775 209.82 352.585 209.235 351.216H209.235Z" fill="#3F3D56"/>
<path d="M209.903 354.361C206.749 348.773 207.491 342.086 208.626 336.044C209.81 329.736 211.363 323.331 210.019 316.916C209.41 313.801 207.968 310.91 205.847 308.549C204.825 307.44 203.175 309.097 204.193 310.203C208.16 314.511 208.62 320.761 207.976 326.311C207.218 332.858 205.067 339.237 205.334 345.889C205.404 349.264 206.278 352.573 207.884 355.541C208.046 355.798 208.301 355.981 208.596 356.053C208.891 356.125 209.202 356.08 209.464 355.927C209.726 355.773 209.918 355.525 210 355.232C210.082 354.94 210.047 354.628 209.903 354.361L209.903 354.361Z" fill="#3F3D56"/>
<path d="M226.83 372.205H187.077C186.147 372.204 185.255 371.834 184.597 371.176C183.94 370.519 183.57 369.627 183.569 368.697V357.02C183.572 354.019 184.766 351.143 186.888 349.021C189.009 346.899 191.886 345.706 194.887 345.702H200.718C201.028 345.702 201.325 345.579 201.544 345.359C201.763 345.14 201.886 344.843 201.887 344.533V339.077C201.887 338.56 202.093 338.065 202.458 337.699C202.824 337.334 203.319 337.129 203.836 337.128H210.071C210.588 337.129 211.083 337.334 211.449 337.699C211.814 338.065 212.02 338.56 212.02 339.077V344.533C212.02 344.843 212.144 345.14 212.363 345.359C212.582 345.579 212.879 345.702 213.189 345.702H219.02C222.021 345.706 224.898 346.899 227.019 349.021C229.141 351.143 230.335 354.019 230.338 357.02V368.697C230.337 369.627 229.967 370.519 229.31 371.176C228.652 371.834 227.76 372.204 226.83 372.205Z" fill="#CCCCCC"/>
<path d="M207.565 302.082C208.402 306.524 207.365 310.448 205.25 310.846C203.135 311.245 200.741 307.967 199.904 303.525C199.067 299.083 201.642 291.696 201.642 291.696C201.642 291.696 206.728 297.64 207.565 302.082Z" fill="#80FF72"/>
<path d="M223.617 322.747C220.966 326.409 217.404 328.354 215.661 327.092C213.917 325.83 214.652 321.838 217.303 318.177C219.953 314.515 227.087 311.307 227.087 311.307C227.087 311.307 226.267 319.086 223.617 322.747Z" fill="#80FF72"/>
<path d="M135.963 70.6009C134.222 66.4288 134.031 61.7717 135.424 57.471C136.816 53.1702 139.701 49.5094 143.558 47.1499C144.842 46.3692 143.668 44.3461 142.377 45.1308C137.954 47.7718 134.653 51.9428 133.099 56.8542C131.545 61.7656 131.845 67.0765 133.944 71.7812C134.534 73.1607 136.549 71.9707 135.963 70.6009H135.963Z" fill="#3F3D56"/>
<path d="M136.632 73.746C133.478 68.1583 134.22 61.4714 135.354 55.4289C136.539 49.1211 138.091 42.7165 136.748 36.3011C136.139 33.1864 134.697 30.2949 132.575 27.9343C131.554 26.8248 129.903 28.4818 130.922 29.5879C134.888 33.8961 135.348 40.1459 134.705 45.6963C133.946 52.2429 131.796 58.6223 132.062 65.2747C132.132 68.649 133.007 71.9579 134.613 74.9263C134.775 75.1828 135.03 75.3664 135.325 75.4384C135.619 75.5103 135.931 75.4649 136.193 75.3118C136.454 75.1587 136.647 74.9098 136.729 74.6177C136.811 74.3256 136.776 74.013 136.632 73.746L136.632 73.746Z" fill="#3F3D56"/>
<path d="M153.559 91.5896H113.805C112.875 91.5885 111.983 91.2186 111.326 90.561C110.668 89.9034 110.298 89.0119 110.297 88.0819V76.4048C110.301 73.4042 111.494 70.5275 113.616 68.4057C115.738 66.284 118.615 65.0905 121.615 65.087H127.446C127.756 65.0867 128.053 64.9634 128.272 64.7442C128.492 64.525 128.615 64.2278 128.615 63.9178V58.4614C128.616 57.9448 128.821 57.4494 129.187 57.0841C129.552 56.7188 130.047 56.5133 130.564 56.5127H136.8C137.317 56.5133 137.812 56.7188 138.177 57.0841C138.543 57.4494 138.748 57.9448 138.749 58.4614V63.9178C138.749 64.2278 138.872 64.525 139.091 64.7442C139.311 64.9634 139.608 65.0867 139.918 65.087H145.749C148.749 65.0905 151.626 66.284 153.748 68.4057C155.87 70.5275 157.063 73.4042 157.067 76.4048V88.0819C157.065 89.0119 156.696 89.9034 156.038 90.561C155.38 91.2186 154.489 91.5885 153.559 91.5896Z" fill="#CCCCCC"/>
<path d="M134.293 21.4665C135.13 25.9086 134.094 29.8327 131.978 30.2312C129.863 30.6298 127.47 27.3519 126.633 22.9098C125.796 18.4678 128.37 11.0811 128.37 11.0811C128.37 11.0811 133.456 17.0244 134.293 21.4665Z" fill="#80FF72"/>
<path d="M150.345 42.1327C147.695 45.7943 144.132 47.7394 142.389 46.4772C140.645 45.215 141.38 41.2236 144.031 37.562C146.682 33.9004 153.816 30.6919 153.816 30.6919C153.816 30.6919 152.996 38.4712 150.345 42.1327Z" fill="#80FF72"/>
<path d="M56.9025 212.02H24.9436V223.712H56.9025V212.02Z" fill="#31DEFC"/>
<path d="M56.9025 250.215H24.9436V261.907H56.9025V250.215Z" fill="#31DEFC"/>
<path d="M251.774 462.235H13.2513C9.73802 462.231 6.3698 460.834 3.88556 458.35C1.40132 455.865 0.00393854 452.497 0 448.984V13.2513C0.00393854 9.73802 1.40132 6.3698 3.88556 3.88556C6.3698 1.40132 9.73802 0.00393854 13.2513 0H251.774C255.287 0.00395501 258.655 1.40133 261.14 3.88557C263.624 6.36981 265.021 9.73802 265.025 13.2513V448.984C265.021 452.497 263.624 455.865 261.14 458.35C258.655 460.834 255.287 462.231 251.774 462.235ZM13.2513 1.55897C10.1513 1.56248 7.17941 2.79546 4.98744 4.98743C2.79547 7.1794 1.56248 10.1514 1.55897 13.2513V448.984C1.56248 452.084 2.79547 455.056 4.98744 457.248C7.17941 459.44 10.1513 460.673 13.2513 460.676H251.774C254.874 460.673 257.846 459.44 260.038 457.248C262.23 455.056 263.463 452.084 263.466 448.984V13.2513C263.463 10.1514 262.23 7.1794 260.038 4.98743C257.846 2.79546 254.874 1.56248 251.774 1.55897H13.2513Z" fill="#3F3D56"/>
<path d="M264.246 89.9937H0.779541V91.5526H264.246V89.9937Z" fill="#3F3D56"/>
<path d="M264.246 183.557H0.779541V185.116H264.246V183.557Z" fill="#3F3D56"/>
<path d="M264.246 277.12H0.779541V278.679H264.246V277.12Z" fill="#3F3D56"/>
<path d="M264.246 370.683H0.779541V372.242H264.246V370.683Z" fill="#3F3D56"/>
<path d="M54.564 279.056H28.0615C27.0282 279.055 26.0376 278.644 25.3069 277.913C24.5763 277.182 24.1653 276.192 24.1641 275.158V199.548C24.1653 198.515 24.5763 197.524 25.3069 196.794C26.0376 196.063 27.0282 195.652 28.0615 195.651H54.564C55.5973 195.652 56.5879 196.063 57.3186 196.794C58.0492 197.524 58.4602 198.515 58.4614 199.548V275.158C58.4602 276.192 58.0492 277.182 57.3186 277.913C56.5879 278.644 55.5973 279.055 54.564 279.056ZM28.0615 197.21C27.4415 197.211 26.8471 197.457 26.4087 197.896C25.9703 198.334 25.7237 198.928 25.723 199.548V275.158C25.7237 275.778 25.9703 276.373 26.4087 276.811C26.8471 277.25 27.4415 277.496 28.0615 277.497H54.564C55.184 277.496 55.7784 277.25 56.2168 276.811C56.6552 276.373 56.9018 275.778 56.9025 275.158V199.548C56.9018 198.928 56.6552 198.334 56.2168 197.896C55.7784 197.457 55.184 197.211 54.564 197.21H28.0615Z" fill="#3F3D56"/>
<path d="M106.01 212.02H74.0513V223.712H106.01V212.02Z" fill="#80FF72"/>
<path d="M106.01 250.215H74.0513V261.907H106.01V250.215Z" fill="#80FF72"/>
<path d="M103.672 279.056H77.1692C76.1359 279.055 75.1452 278.644 74.4146 277.913C73.6839 277.182 73.2729 276.192 73.2717 275.158V199.548C73.2729 198.515 73.6839 197.524 74.4146 196.794C75.1452 196.063 76.1359 195.652 77.1692 195.651H103.672C104.705 195.652 105.696 196.063 106.426 196.794C107.157 197.524 107.568 198.515 107.569 199.548V275.158C107.568 276.192 107.157 277.182 106.426 277.913C105.696 278.644 104.705 279.055 103.672 279.056ZM77.1692 197.21C76.5492 197.211 75.9548 197.457 75.5164 197.896C75.078 198.334 74.8314 198.928 74.8307 199.548V275.158C74.8314 275.778 75.078 276.373 75.5164 276.811C75.9548 277.25 76.5492 277.496 77.1692 277.497H103.672C104.292 277.496 104.886 277.25 105.324 276.811C105.763 276.373 106.009 275.778 106.01 275.158V199.548C106.009 198.928 105.763 198.334 105.324 197.896C104.886 197.457 104.292 197.211 103.672 197.21H77.1692Z" fill="#3F3D56"/>
<path d="M183.959 117.702H152V129.394H183.959V117.702Z" fill="#80FF72"/>
<path d="M183.959 155.897H152V167.589H183.959V155.897Z" fill="#80FF72"/>
<path d="M181.62 184.738H155.118C154.084 184.737 153.094 184.326 152.363 183.595C151.632 182.865 151.221 181.874 151.22 180.841V105.23C151.221 104.197 151.632 103.207 152.363 102.476C153.094 101.745 154.084 101.334 155.118 101.333H181.62C182.653 101.334 183.644 101.745 184.375 102.476C185.105 103.207 185.516 104.197 185.518 105.23V180.841C185.516 181.874 185.105 182.865 184.375 183.595C183.644 184.326 182.653 184.737 181.62 184.738ZM155.118 102.892C154.498 102.893 153.903 103.139 153.465 103.578C153.026 104.016 152.78 104.61 152.779 105.23V180.841C152.78 181.461 153.026 182.055 153.465 182.493C153.903 182.932 154.498 183.178 155.118 183.179H181.62C182.24 183.178 182.835 182.932 183.273 182.493C183.711 182.055 183.958 181.461 183.959 180.841V105.23C183.958 104.61 183.711 104.016 183.273 103.578C182.835 103.139 182.24 102.893 181.62 102.892H155.118Z" fill="#3F3D56"/>
<path d="M233.066 117.702H201.107V129.394H233.066V117.702Z" fill="#31DEFC"/>
<path d="M233.066 155.897H201.107V167.589H233.066V155.897Z" fill="#31DEFC"/>
<path d="M230.728 184.738H204.225C203.192 184.737 202.201 184.326 201.471 183.595C200.74 182.865 200.329 181.874 200.328 180.841V105.23C200.329 104.197 200.74 103.207 201.471 102.476C202.201 101.745 203.192 101.334 204.225 101.333H230.728C231.761 101.334 232.752 101.745 233.482 102.476C234.213 103.207 234.624 104.197 234.625 105.23V180.841C234.624 181.874 234.213 182.865 233.482 183.595C232.752 184.326 231.761 184.737 230.728 184.738ZM204.225 102.892C203.605 102.893 203.011 103.139 202.573 103.578C202.134 104.016 201.888 104.61 201.887 105.23V180.841C201.888 181.461 202.134 182.055 202.573 182.493C203.011 182.932 203.605 183.178 204.225 183.179H230.728C231.348 183.178 231.942 182.932 232.381 182.493C232.819 182.055 233.066 181.461 233.066 180.841V105.23C233.066 104.61 232.819 104.016 232.381 103.578C231.942 103.139 231.348 102.893 230.728 102.892H204.225Z" fill="#3F3D56"/>
<path d="M145.21 205.038L115.294 216.279L119.407 227.224L149.323 215.983L145.21 205.038Z" fill="#31DEFC"/>
<path d="M158.645 240.791L128.729 252.033L132.842 262.978L162.758 251.737L158.645 240.791Z" fill="#31DEFC"/>
<path d="M140.42 278.185C139.627 278.184 138.854 277.941 138.202 277.489C137.551 277.038 137.053 276.398 136.773 275.657L110.177 204.879C109.815 203.911 109.851 202.839 110.278 201.898C110.705 200.957 111.488 200.224 112.454 199.86L137.263 190.537C137.743 190.357 138.252 190.273 138.764 190.29C139.276 190.307 139.779 190.425 140.245 190.636C140.711 190.848 141.131 191.149 141.48 191.523C141.83 191.897 142.103 192.336 142.283 192.815L168.879 263.593C169.241 264.56 169.205 265.632 168.778 266.573C168.351 267.514 167.568 268.247 166.602 268.612H166.602L141.793 277.934C141.354 278.1 140.889 278.185 140.42 278.185ZM138.636 191.846C138.354 191.846 138.075 191.897 137.812 191.997L113.003 201.319C112.423 201.538 111.953 201.978 111.697 202.542C111.441 203.107 111.419 203.75 111.636 204.331L138.233 275.108C138.341 275.396 138.504 275.659 138.714 275.884C138.924 276.108 139.176 276.289 139.455 276.415C139.735 276.542 140.037 276.613 140.344 276.623C140.651 276.633 140.957 276.583 141.244 276.475L166.053 267.153C166.633 266.934 167.103 266.494 167.359 265.929C167.615 265.365 167.637 264.722 167.42 264.141L140.823 193.363C140.656 192.918 140.357 192.535 139.966 192.264C139.575 191.993 139.111 191.847 138.636 191.846Z" fill="#3F3D56"/>
<path d="M37.6411 112.279L7.72461 123.521L11.8374 134.466L41.7539 123.224L37.6411 112.279Z" fill="#80FF72"/>
<path d="M51.0764 148.033L21.1599 159.274L25.2727 170.219L55.1892 158.978L51.0764 148.033Z" fill="#80FF72"/>
<path d="M32.8506 185.426C32.058 185.425 31.2846 185.182 30.6333 184.73C29.982 184.278 29.4835 183.639 29.2043 182.897L2.60803 112.119C2.24579 111.152 2.28211 110.08 2.70902 109.139C3.13593 108.198 3.91857 107.465 4.8853 107.1L29.6943 97.778C30.1734 97.5979 30.6833 97.514 31.1949 97.531C31.7064 97.5479 32.2097 97.6655 32.6758 97.877C33.1419 98.0885 33.5617 98.3898 33.9114 98.7636C34.261 99.1374 34.5336 99.5764 34.7136 100.056L61.3098 170.834C61.6721 171.801 61.6358 172.873 61.2089 173.814C60.7819 174.755 59.9993 175.488 59.0326 175.853H59.0325L34.2235 185.175C33.7848 185.341 33.3196 185.426 32.8506 185.426ZM31.0666 99.0866C30.7851 99.0869 30.506 99.138 30.2427 99.2373L5.43385 108.56C4.85375 108.778 4.38412 109.218 4.12795 109.783C3.87178 110.348 3.85 110.991 4.06737 111.571L30.6636 182.349C30.7716 182.637 30.9352 182.9 31.145 183.124C31.3548 183.349 31.6067 183.529 31.8864 183.656C32.166 183.783 32.468 183.854 32.7749 183.864C33.0818 183.874 33.3877 183.824 33.6752 183.716L58.484 174.393C59.0641 174.175 59.5338 173.735 59.7899 173.17C60.0461 172.605 60.0679 171.962 59.8505 171.382L33.2542 100.604C33.0866 100.159 32.7876 99.7752 32.3968 99.5042C32.0061 99.2333 31.5421 99.0876 31.0666 99.0866Z" fill="#3F3D56"/>
<path d="M488.738 194.872C502.083 194.872 512.902 184.053 512.902 170.708C512.902 157.362 502.083 146.543 488.738 146.543C475.392 146.543 464.574 157.362 464.574 170.708C464.574 184.053 475.392 194.872 488.738 194.872Z" fill="#2F2E41"/>
<path d="M381.387 280.982C382.529 281.424 383.753 281.611 384.975 281.529C386.196 281.446 387.385 281.097 388.457 280.506C389.528 279.915 390.458 279.096 391.179 278.106C391.9 277.117 392.395 275.982 392.63 274.78L459.071 232.861L446.978 219.246L385.443 264.76C383.399 264.5 381.329 264.998 379.628 266.161C377.926 267.324 376.71 269.07 376.21 271.07C375.71 273.069 375.961 275.183 376.915 277.01C377.869 278.837 379.46 280.25 381.387 280.982Z" fill="#FFB8B8"/>
<path d="M445.2 244.006C444.612 244.007 444.033 243.86 443.517 243.579C443 243.298 442.562 242.892 442.244 242.397L434.55 230.441C434.064 229.686 433.886 228.774 434.053 227.892C434.219 227.01 434.717 226.226 435.445 225.7L461.191 207.091C462.44 206.188 463.858 205.545 465.36 205.2C466.863 204.854 468.419 204.813 469.937 205.08C471.456 205.346 472.905 205.915 474.2 206.751C475.495 207.588 476.608 208.675 477.476 209.95C478.343 211.224 478.945 212.66 479.248 214.172C479.55 215.683 479.547 217.24 479.237 218.75C478.927 220.26 478.318 221.693 477.445 222.963C476.571 224.233 475.452 225.316 474.154 226.146L447.083 243.455C446.521 243.815 445.868 244.006 445.2 244.006Z" fill="#2F2E41"/>
<path d="M456.696 452.764L447.14 452.764L442.594 415.903L456.699 415.904L456.696 452.764Z" fill="#FFB8B8"/>
<path d="M440.314 450.033H458.744V461.637H428.71C428.71 460.113 429.01 458.604 429.593 457.197C430.176 455.789 431.031 454.51 432.109 453.432C433.186 452.354 434.465 451.5 435.873 450.917C437.281 450.333 438.79 450.033 440.314 450.033Z" fill="#2F2E41"/>
<path d="M501.309 445.62L492.108 448.203L477.767 413.944L491.346 410.131L501.309 445.62Z" fill="#FFB8B8"/>
<path d="M484.798 447.418L502.543 442.437L505.679 453.61L476.762 461.727C476.351 460.26 476.232 458.726 476.413 457.213C476.594 455.7 477.071 454.237 477.817 452.908C478.563 451.58 479.564 450.411 480.762 449.469C481.96 448.527 483.331 447.83 484.798 447.418Z" fill="#2F2E41"/>
<path d="M527.057 389.052L489.957 345.267L512.469 317.951C512.8 317.55 513.215 317.228 513.684 317.007C514.154 316.787 514.667 316.673 515.186 316.674C515.705 316.676 516.218 316.793 516.686 317.016C517.155 317.24 517.568 317.564 517.896 317.967L551.96 359.774L527.057 389.052Z" fill="url(#paint0_linear_213_458)"/>
<path d="M491.454 345.593C492.001 344.609 492.679 343.703 493.47 342.902L514.958 321.117C515.8 320.259 516.934 319.75 518.135 319.69C520.59 319.574 524.617 319.823 525.739 322.516L496.728 346.253L491.454 345.593Z" fill="#F2F2F2"/>
<path d="M528.346 398.317C526.692 398.267 525.084 397.758 523.702 396.846L523.6 396.74L489.621 344.773L495.259 344.228L525.477 320.657C525.859 320.36 526.298 320.144 526.766 320.025C527.235 319.905 527.724 319.883 528.201 319.962C528.679 320.04 529.135 320.216 529.541 320.479C529.947 320.742 530.294 321.086 530.561 321.489L563.593 371.484C564.1 372.256 564.283 373.196 564.102 374.102C563.922 375.008 563.392 375.806 562.628 376.325L530.664 397.878C529.927 398.171 529.14 398.32 528.346 398.317Z" fill="url(#paint1_linear_213_458)"/>
<path d="M516.329 362.768C516.009 362.769 515.694 362.69 515.412 362.541C515.13 362.391 514.888 362.174 514.71 361.909L510.806 356.11C510.518 355.681 510.412 355.156 510.511 354.648C510.61 354.141 510.906 353.694 511.334 353.405L531.36 339.923C531.789 339.635 532.315 339.529 532.822 339.629C533.329 339.728 533.776 340.023 534.065 340.451L537.969 346.25C538.257 346.679 538.363 347.204 538.264 347.711C538.165 348.219 537.869 348.666 537.44 348.955L517.414 362.437C517.094 362.653 516.716 362.768 516.329 362.768Z" fill="#E1E1E1"/>
<path d="M441.082 447.19C440.016 447.186 438.99 446.784 438.206 446.062C437.421 445.34 436.935 444.351 436.842 443.29C435.142 423.97 426.61 326.6 425.674 306.937C424.634 285.088 442.817 250.524 443.001 250.178L443.126 249.94L452.114 251.063V252.108L460.668 253.115L477.223 254.717L481.963 312.647L484.058 351.935L503.747 432.178C503.97 433.067 503.835 434.007 503.37 434.797C502.906 435.587 502.149 436.162 501.264 436.398L484.128 441.071C483.237 441.31 482.288 441.19 481.485 440.737C480.681 440.284 480.088 439.534 479.831 438.648L463.698 381.974C463.62 381.699 463.444 381.463 463.204 381.309C462.964 381.155 462.676 381.095 462.394 381.139C462.112 381.182 461.856 381.328 461.674 381.547C461.492 381.766 461.396 382.045 461.405 382.33L463.111 437.592C463.12 438.159 463.012 438.722 462.796 439.247C462.579 439.771 462.257 440.246 461.85 440.641C457.923 444.33 447.544 446.299 441.708 447.145C441.5 447.175 441.291 447.19 441.082 447.19Z" fill="#2F2E41"/>
<path d="M492.572 203.752C489.853 200.917 471.936 204.813 467.958 208.989L440.727 253.502L485.764 261.881L495.714 205.323L492.572 203.752Z" fill="#80FF72"/>
<path d="M480.767 316.845C479.797 316.845 478.834 316.685 477.916 316.37C475.3 315.473 472.093 314.533 468.385 313.58C452.145 309.404 446.412 296.034 451.344 273.842L451.468 273.278C456.099 252.227 464.828 232.293 477.158 214.612L479.067 211.869C481.373 208.559 484.6 205.999 488.348 204.509C492.096 203.018 496.2 202.662 500.148 203.485C507.456 204.992 511.379 207.176 511.81 209.976C512.655 215.472 496.334 281.899 489.277 310.204C488.804 312.103 487.709 313.788 486.167 314.992C484.625 316.195 482.724 316.848 480.767 316.845L480.767 316.845Z" fill="#2F2E41"/>
<path d="M424.823 308.317C424.398 308.317 423.976 308.251 423.571 308.122L418.308 306.438C417.764 306.264 417.262 305.978 416.835 305.599C416.407 305.22 416.064 304.755 415.826 304.236C415.588 303.716 415.462 303.153 415.454 302.582C415.446 302.01 415.558 301.444 415.782 300.918L443.712 235.36C449.064 222.854 458.42 212.482 470.311 205.875H470.311C470.483 205.78 470.673 205.721 470.869 205.703C471.065 205.685 471.263 205.707 471.45 205.768C471.622 205.823 471.78 205.913 471.915 206.033C472.05 206.152 472.159 206.299 472.233 206.463C475.518 213.689 457.64 247.888 443.274 275.366C435.917 289.437 429.565 301.589 428.841 305.054C428.649 305.977 428.144 306.805 427.412 307.399C426.68 307.993 425.766 308.318 424.823 308.317Z" fill="#2F2E41"/>
<path d="M511.233 323.256C512.214 322.524 513.022 321.585 513.601 320.507C514.181 319.428 514.516 318.236 514.585 317.013C514.653 315.791 514.453 314.569 513.998 313.432C513.543 312.296 512.844 311.273 511.951 310.436L511.729 231.876L493.77 234.889L499.644 311.202C498.337 312.796 497.66 314.814 497.741 316.873C497.822 318.933 498.656 320.891 500.084 322.377C501.513 323.862 503.437 324.772 505.491 324.934C507.546 325.096 509.589 324.499 511.233 323.256Z" fill="#FFB8B8"/>
<path d="M496.61 251.366C495.72 251.366 494.863 251.027 494.213 250.419C493.564 249.81 493.17 248.978 493.111 248.09L491.022 216.391C490.825 213.341 491.845 210.337 493.859 208.039C495.873 205.74 498.717 204.334 501.767 204.129C503.332 204.026 504.903 204.244 506.381 204.769C507.86 205.294 509.216 206.115 510.366 207.182C511.516 208.25 512.436 209.541 513.07 210.976C513.704 212.411 514.038 213.961 514.052 215.53L514.336 247.66C514.343 248.588 513.982 249.481 513.332 250.144C512.683 250.807 511.798 251.187 510.87 251.199L496.652 251.366L496.61 251.366Z" fill="#2F2E41"/>
<path d="M483.76 196.1C494.333 196.1 502.905 187.529 502.905 176.956C502.905 166.382 494.333 157.811 483.76 157.811C473.187 157.811 464.615 166.382 464.615 176.956C464.615 187.529 473.187 196.1 483.76 196.1Z" fill="#FFB8B8"/>
<path d="M499.678 190.352C501.106 185.808 502.417 180.45 499.591 176.615C497.555 173.852 493.9 172.783 490.471 172.63C487.042 172.477 483.604 173.058 480.182 172.786C476.761 172.514 473.145 171.164 471.407 168.204C469.154 164.366 471.062 159.081 474.685 156.496C478.308 153.912 483.095 153.551 487.504 154.153C493.084 154.816 498.329 157.162 502.542 160.88C506.641 164.663 509.312 170.115 509.193 175.692C509.074 181.268 505.947 186.821 500.963 189.325" fill="#2F2E41"/>
<path d="M494.905 148.519C490.322 147.107 488.208 141.048 490.257 136.712C492.307 132.376 497.546 130.106 502.303 130.71C507.061 131.314 511.253 134.366 514.145 138.192C517.036 142.018 518.78 146.578 520.234 151.148C521.688 155.718 522.897 160.387 524.882 164.753C528.033 171.46 532.894 177.22 538.975 181.453C545.057 185.687 552.146 188.246 559.53 188.872C562.749 189.105 566.089 188.938 569.022 187.593C571.955 186.248 574.415 183.535 574.744 180.325C576.413 191.728 569.779 203.847 559.274 208.585C548.768 213.324 535.293 210.276 527.85 201.477C520.577 192.878 519.451 180.738 519.625 169.477C519.673 166.389 519.787 163.243 518.934 160.275C518.081 157.306 516.062 154.484 513.121 153.541C510.748 152.781 508.178 153.329 505.746 153.868C503.313 154.408 500.73 154.927 498.374 154.114C496.019 153.301 494.122 150.622 495.071 148.318" fill="#2F2E41"/>
<path d="M570.648 463.015H364.864C364.657 463.015 364.459 462.932 364.313 462.786C364.167 462.64 364.084 462.442 364.084 462.235C364.084 462.028 364.167 461.83 364.313 461.684C364.459 461.538 364.657 461.456 364.864 461.456H570.648C570.855 461.456 571.053 461.538 571.199 461.684C571.346 461.83 571.428 462.028 571.428 462.235C571.428 462.442 571.346 462.64 571.199 462.786C571.053 462.932 570.855 463.015 570.648 463.015Z" fill="#CCCCCC"/>
</g>
<defs>
<linearGradient id="paint0_linear_213_458" x1="489.957" y1="316.674" x2="565.554" y2="336.07" gradientUnits="userSpaceOnUse">
<stop stop-color="#80FF72"/>
<stop offset="1" stop-color="#31DEFC"/>
</linearGradient>
<linearGradient id="paint1_linear_213_458" x1="489.621" y1="319.916" x2="579.23" y2="345.435" gradientUnits="userSpaceOnUse">
<stop stop-color="#80FF72"/>
<stop offset="1" stop-color="#31DEFC"/>
</linearGradient>
<clipPath id="clip0_213_458">
<rect width="575" height="463.015" fill="white"/>
</clipPath>
</defs>
</svg>
