<svg width="708" height="471" viewBox="0 0 708 471" fill="none" xmlns="http://www.w3.org/2000/svg">
<g clip-path="url(#clip0_230_783)">
<path d="M253.96 271.065C278.223 228.339 324.506 195.533 373.5 198.693C337.36 238.034 316.287 288.902 314.007 342.299C313.203 362.895 314.45 385.887 300.789 401.309C292.289 410.906 279.297 415.553 266.522 416.528C253.747 417.503 240.975 415.192 228.37 412.891L225.312 413.831C224.148 364.698 229.697 313.79 253.96 271.065Z" fill="#F0F0F0"/>
<path d="M373.573 199.722C337.342 217.181 306.449 246.34 287.485 281.902C283.385 289.59 279.894 297.747 278.371 306.371C276.848 314.998 277.912 323.211 280.856 331.406C283.547 338.897 287.167 346.248 287.992 354.264C288.862 362.714 285.756 370.614 280.166 376.884C273.326 384.555 264.14 389.309 254.996 393.645C244.843 398.46 234.222 403.3 227.031 412.286C226.159 413.374 224.523 411.957 225.393 410.87C237.904 395.236 259.32 392.298 274.171 379.704C281.1 373.827 286.303 365.825 285.975 356.448C285.688 348.248 281.962 340.664 279.171 333.103C276.241 325.163 274.78 317.179 275.831 308.714C276.905 300.055 280.085 291.745 283.971 283.985C292.734 266.485 304.727 250.419 318.465 236.531C334.254 220.567 352.655 207.425 372.872 197.672C374.124 197.069 374.816 199.123 373.573 199.722Z" fill="white"/>
<path d="M293.04 270.017C287.486 265.952 283.556 260.042 281.953 253.344C280.349 246.646 281.176 239.596 284.286 233.452C284.92 232.211 286.876 233.138 286.242 234.381C283.335 240.096 282.565 246.664 284.071 252.898C285.577 259.133 289.259 264.623 294.454 268.377C295.582 269.195 294.161 270.83 293.04 270.017Z" fill="white"/>
<path d="M278.991 327.787C292.909 325.751 305.549 318.539 314.391 307.589C315.266 306.503 316.903 307.92 316.029 309.004C306.807 320.382 293.638 327.861 279.15 329.947C277.769 330.145 277.618 327.984 278.991 327.787V327.787Z" fill="white"/>
<path d="M335.323 223.232C337.145 225.253 339.44 226.79 342.001 227.704C344.563 228.619 347.311 228.881 349.999 228.47C351.377 228.254 351.527 230.416 350.158 230.63C347.186 231.071 344.151 230.777 341.318 229.773C338.486 228.769 335.942 227.087 333.91 224.872C333.7 224.679 333.573 224.414 333.552 224.13C333.531 223.847 333.619 223.566 333.797 223.344C333.986 223.128 334.252 222.995 334.537 222.974C334.823 222.953 335.106 223.046 335.323 223.232Z" fill="white"/>
<path d="M470.983 333.477C470.127 333.636 469.27 333.795 468.406 333.97C456.902 336.167 445.595 339.296 434.597 343.326C433.741 343.624 432.879 343.939 432.034 344.261C405.64 354.252 381.329 369.062 360.337 387.938C351.99 395.456 344.227 403.6 337.115 412.297C327.293 424.31 317.598 438.117 304.764 445.949C303.434 446.781 302.054 447.53 300.631 448.192L226.695 417.492C226.562 417.338 226.421 417.2 226.287 417.046L223.279 415.955C223.614 415.481 223.973 414.996 224.308 414.522C224.502 414.246 224.711 413.977 224.905 413.701C225.039 413.519 225.174 413.338 225.285 413.166C225.329 413.105 225.375 413.045 225.412 413.001C225.523 412.83 225.644 412.682 225.748 412.527C227.742 409.813 229.759 407.107 231.799 404.411C231.806 404.395 231.806 404.395 231.83 404.385C247.423 383.883 264.863 364.505 284.687 348.393C285.284 347.908 285.886 347.406 286.517 346.936C295.493 339.723 305.043 333.256 315.071 327.6C320.572 324.521 326.226 321.723 332.01 319.216C346.967 312.767 362.844 308.713 379.06 307.204C411.385 304.199 444.312 311.577 469.104 331.905C469.738 332.426 470.356 332.94 470.983 333.477Z" fill="#F0F0F0"/>
<path d="M470.428 334.348C430.999 326.452 388.795 331.115 352.264 348.079C344.366 351.747 336.674 356.156 330.271 362.124C323.865 368.094 319.775 375.293 317.197 383.61C314.84 391.214 313.309 399.265 309.147 406.162C304.759 413.433 297.528 417.869 289.294 419.506C279.218 421.509 269.025 419.768 259.116 417.72C248.114 415.445 236.722 412.908 225.576 415.748C224.225 416.093 223.771 413.975 225.119 413.631C244.512 408.689 263.379 419.249 282.811 418.144C291.878 417.629 300.845 414.375 306.223 406.69C310.925 399.97 312.512 391.669 314.831 383.95C317.267 375.844 320.902 368.589 326.833 362.464C332.899 356.197 340.436 351.479 348.206 347.625C365.728 338.934 384.966 333.334 404.288 330.525C426.497 327.295 449.094 327.891 471.101 332.289C472.463 332.561 471.781 334.619 470.428 334.348V334.348Z" fill="white"/>
<path d="M363.848 341.938C361.858 335.345 362.275 328.258 365.023 321.943C367.771 315.629 372.672 310.498 378.851 307.467C380.103 306.858 381.107 308.777 379.853 309.387C374.095 312.199 369.53 316.979 366.983 322.864C364.435 328.75 364.074 335.352 365.963 341.481C366.372 342.813 364.254 343.263 363.848 341.938Z" fill="white"/>
<path d="M317.885 379.597C330.222 386.36 344.652 388.219 358.297 384.805C359.649 384.466 360.104 386.583 358.754 386.922C344.547 390.449 329.535 388.483 316.712 381.418C315.491 380.743 316.67 378.927 317.885 379.597Z" fill="white"/>
<path d="M425.747 330.067C425.986 332.779 426.894 335.389 428.389 337.662C429.885 339.936 431.921 341.802 434.315 343.094C435.545 343.752 434.364 345.568 433.142 344.914C430.504 343.475 428.258 341.411 426.6 338.903C424.942 336.394 423.923 333.517 423.632 330.524C423.581 330.244 423.638 329.955 423.792 329.716C423.947 329.477 424.186 329.306 424.461 329.237C424.742 329.178 425.034 329.232 425.275 329.387C425.516 329.543 425.685 329.787 425.747 330.067Z" fill="white"/>
<path d="M330.139 384.125C319.784 334.007 306.841 317.298 306.841 317.298L301.896 313.459L295.95 308.835L295.979 308.241L294.568 307.761L294.237 307.504L293.694 307.086L293.607 307.18L293.422 307.371L266.514 298.215L232.377 286.608L216.569 266.04C213.995 262.69 210.68 259.983 206.885 258.13C203.091 256.277 198.919 255.329 194.697 255.36L144.212 255.734C137.386 255.785 130.825 258.39 125.821 263.037L92.6377 293.848L40.9322 318.568L40.8449 318.48L40.302 318.868L32.313 322.692L32.6427 324.41L27.698 327.982C27.698 327.982 14.7547 343.53 4.40004 390.164C1.76593 402.03 0.469321 427.484 0.00131519 458.85C-0.0221927 460.437 0.269647 462.012 0.859857 463.485C1.45007 464.958 2.32688 466.298 3.4393 467.429C4.55173 468.559 5.87758 469.457 7.33976 470.07C8.80194 470.683 10.3713 470.999 11.9565 471H288.125V471H322.595C324.179 470.999 325.747 470.683 327.209 470.071C328.67 469.459 329.995 468.562 331.107 467.433C332.219 466.304 333.096 464.964 333.688 463.493C334.279 462.022 334.572 460.448 334.55 458.862C334.093 424.731 332.797 396.993 330.139 384.125Z" fill="#9FE5F1"/>
<path d="M365.573 43.707C354.828 43.707 344.523 47.9797 336.926 55.5851C329.328 63.1905 325.06 73.5056 325.06 84.2613C325.06 95.017 329.328 105.332 336.926 112.938C344.523 120.543 354.828 124.816 365.573 124.816H667.487C678.232 124.816 688.536 120.543 696.134 112.938C703.732 105.332 708 95.017 708 84.2613C708 73.5056 703.732 63.1905 696.134 55.5851C688.536 47.9797 678.232 43.707 667.487 43.707H365.573Z" fill="#E5E5E5"/>
<path d="M365.573 51.9146C357.002 51.9146 348.783 55.3225 342.723 61.3887C336.663 67.4549 333.259 75.6825 333.259 84.2614C333.259 92.8403 336.663 101.068 342.723 107.134C348.783 113.2 357.002 116.608 365.573 116.608H667.487C676.057 116.608 684.277 113.2 690.336 107.134C696.396 101.068 699.801 92.8403 699.801 84.2614C699.801 75.6825 696.396 67.4549 690.336 61.3887C684.277 55.3225 676.057 51.9146 667.487 51.9146H365.573Z" fill="white"/>
<path d="M177.383 236.375C213.911 236.375 243.523 206.732 243.523 170.166C243.523 133.6 213.911 103.958 177.383 103.958C140.854 103.958 111.242 133.6 111.242 170.166C111.242 206.732 140.854 236.375 177.383 236.375Z" fill="#9E616A"/>
<path d="M160.463 233.132C160.18 232.51 159.898 231.885 159.617 231.258C159.726 231.261 159.833 231.277 159.941 231.28L160.463 233.132Z" fill="#2F2E41"/>
<path d="M109.403 106.969C112.748 104.298 116.658 101.84 120.935 101.978C125.212 102.116 129.549 105.983 128.663 110.173C136.519 96.2496 149.023 85.5406 163.98 79.9262C178.938 74.3117 195.393 74.1505 210.457 79.4709C221.087 83.2251 231.512 90.7357 233.953 101.751C234.58 104.579 234.715 107.68 236.479 109.976C238.702 112.871 242.957 113.526 246.461 112.508C246.496 112.497 246.531 112.487 246.566 112.477C247.158 112.274 247.797 112.254 248.4 112.42C249.003 112.585 249.543 112.927 249.95 113.403C250.357 113.878 250.611 114.465 250.681 115.087C250.751 115.71 250.633 116.338 250.342 116.893L247.334 122.508C251.126 123.354 255.065 123.27 258.817 122.263C259.44 122.1 260.099 122.133 260.703 122.359C261.306 122.585 261.825 122.992 262.188 123.525C262.552 124.058 262.741 124.69 262.731 125.335C262.721 125.98 262.512 126.606 262.133 127.127C252.215 140.757 235.646 149.559 218.738 149.456C206.721 149.382 194.579 145.236 182.884 148.003C178.359 149.073 174.131 151.144 170.511 154.063C166.89 156.982 163.968 160.676 161.959 164.873C159.95 169.07 158.905 173.664 158.901 178.318C158.898 182.972 159.935 187.567 161.937 191.768C158.344 187.834 151.398 188.765 147.723 192.622C144.048 196.48 143.096 202.237 143.466 207.554C144.033 215.687 147.216 223.351 150.572 230.809C122.436 229.923 95.8251 210.166 86.8677 183.444C77.8727 156.611 87.2997 124.62 109.403 106.969Z" fill="#2F2E41"/>
<path opacity="0.2" d="M65.099 368.994L83.6498 470.03L94.7808 471L65.099 368.994Z" fill="black"/>
<path opacity="0.2" d="M269.44 361.375L250.889 469.957L239.758 471L269.44 361.375Z" fill="black"/>
<path d="M125.225 72.9655C121.669 74.4522 117.957 72.8229 116.401 69.0915C114.82 65.303 116.296 61.4572 119.91 59.9466C123.524 58.4359 127.17 60.0693 128.776 63.9188C130.357 67.7106 128.897 71.4307 125.225 72.9655ZM118.412 52.4897L115.584 53.6718C114.877 53.9636 114.087 53.9794 113.37 53.7159C112.652 53.4525 112.06 52.929 111.709 52.2492L111.569 51.9753C108.526 46.4816 108.178 39.8049 110.539 32.141C112.727 25.2661 113.635 20.431 111.808 16.0507C109.695 10.9862 105.184 9.39971 99.4315 11.6979C97.2004 12.6305 96.4904 12.6156 94.7346 14.3592C94.3526 14.7431 93.8974 15.0461 93.3959 15.2501C92.8945 15.454 92.3572 15.5548 91.816 15.5464C91.2929 15.5403 90.7763 15.4287 90.2971 15.2184C89.818 15.0081 89.386 14.7033 89.027 14.3223C88.3355 13.588 87.948 12.6184 87.9429 11.6092C87.9378 10.6001 88.3155 9.62657 88.9996 8.88534C91.9509 5.79277 95.5105 3.34615 99.4538 1.69987C111.814 -3.4666 118.036 4.16096 120.883 10.9869C123.668 17.6635 122.102 23.8582 119.585 31.881C117.475 38.5474 117.598 43.4872 119.994 48.3988C120.167 48.7702 120.263 49.1727 120.277 49.5821C120.291 49.9916 120.222 50.3997 120.074 50.7818C119.926 51.1638 119.703 51.5121 119.417 51.8056C119.132 52.0991 118.79 52.3318 118.412 52.4897L118.412 52.4897Z" fill="url(#paint0_linear_230_783)"/>
<path d="M432.262 103.603H372.192C372.001 103.604 371.812 103.568 371.635 103.495C371.459 103.423 371.298 103.317 371.162 103.182C371.027 103.047 370.92 102.887 370.846 102.711C370.773 102.535 370.735 102.345 370.735 102.154C370.735 101.963 370.773 101.774 370.846 101.598C370.92 101.422 371.027 101.261 371.162 101.127C371.298 100.992 371.459 100.886 371.635 100.813C371.812 100.741 372.001 100.705 372.192 100.706H432.262C432.644 100.709 433.009 100.862 433.279 101.134C433.548 101.405 433.699 101.772 433.699 102.154C433.699 102.537 433.548 102.904 433.279 103.175C433.009 103.446 432.644 103.6 432.262 103.603Z" fill="url(#paint1_linear_230_783)"/>
<path d="M508.464 104.086H448.394C448.203 104.087 448.014 104.051 447.837 103.978C447.661 103.906 447.5 103.8 447.365 103.665C447.229 103.53 447.122 103.37 447.048 103.194C446.975 103.018 446.937 102.828 446.937 102.637C446.937 102.446 446.975 102.257 447.048 102.081C447.122 101.904 447.229 101.744 447.365 101.61C447.5 101.475 447.661 101.369 447.837 101.296C448.014 101.224 448.203 101.188 448.394 101.189H508.464C508.655 101.188 508.844 101.224 509.021 101.296C509.197 101.369 509.358 101.475 509.493 101.61C509.629 101.744 509.736 101.904 509.81 102.081C509.883 102.257 509.921 102.446 509.921 102.637C509.921 102.828 509.883 103.018 509.81 103.194C509.736 103.37 509.629 103.53 509.493 103.665C509.358 103.8 509.197 103.906 509.021 103.978C508.844 104.051 508.655 104.087 508.464 104.086Z" fill="url(#paint2_linear_230_783)"/>
<path d="M584.666 104.569H524.596C524.214 104.566 523.849 104.412 523.579 104.141C523.31 103.87 523.159 103.503 523.159 103.12C523.159 102.738 523.31 102.371 523.579 102.1C523.849 101.828 524.214 101.675 524.596 101.672H584.666C584.857 101.671 585.046 101.707 585.223 101.779C585.399 101.852 585.56 101.958 585.696 102.093C585.831 102.227 585.938 102.387 586.012 102.564C586.085 102.74 586.123 102.929 586.123 103.12C586.123 103.311 586.085 103.5 586.012 103.677C585.938 103.853 585.831 104.013 585.696 104.148C585.56 104.283 585.399 104.389 585.223 104.461C585.046 104.533 584.857 104.57 584.666 104.569H584.666Z" fill="url(#paint3_linear_230_783)"/>
<path d="M660.868 105.051H600.798C600.416 105.048 600.051 104.895 599.782 104.623C599.512 104.352 599.361 103.985 599.361 103.603C599.361 103.22 599.512 102.853 599.782 102.582C600.051 102.311 600.416 102.157 600.798 102.154H660.868C661.25 102.157 661.616 102.311 661.885 102.582C662.154 102.853 662.305 103.22 662.305 103.603C662.305 103.985 662.154 104.352 661.885 104.623C661.616 104.895 661.25 105.048 660.868 105.051Z" fill="url(#paint4_linear_230_783)"/>
<path d="M402.095 90.2732C408.261 90.2732 413.259 85.2696 413.259 79.0973C413.259 72.925 408.261 67.9214 402.095 67.9214C395.929 67.9214 390.93 72.925 390.93 79.0973C390.93 85.2696 395.929 90.2732 402.095 90.2732Z" fill="url(#paint5_linear_230_783)"/>
<path d="M478.757 90.2732C484.923 90.2732 489.922 85.2696 489.922 79.0973C489.922 72.925 484.923 67.9214 478.757 67.9214C472.591 67.9214 467.593 72.925 467.593 79.0973C467.593 85.2696 472.591 90.2732 478.757 90.2732Z" fill="url(#paint6_linear_230_783)"/>
<path d="M555.42 90.2732C561.586 90.2732 566.584 85.2696 566.584 79.0973C566.584 72.925 561.586 67.9214 555.42 67.9214C549.254 67.9214 544.255 72.925 544.255 79.0973C544.255 85.2696 549.254 90.2732 555.42 90.2732Z" fill="url(#paint7_linear_230_783)"/>
<path d="M632.082 90.2732C638.248 90.2732 643.246 85.2696 643.246 79.0973C643.246 72.925 638.248 67.9214 632.082 67.9214C625.916 67.9214 620.917 72.925 620.917 79.0973C620.917 85.2696 625.916 90.2732 632.082 90.2732Z" fill="url(#paint8_linear_230_783)"/>
</g>
<defs>
<linearGradient id="paint0_linear_230_783" x1="87.9429" y1="0" x2="140.331" y2="8.85019" gradientUnits="userSpaceOnUse">
<stop stop-color="#80FF72"/>
<stop offset="1" stop-color="#31DEFC"/>
</linearGradient>
<linearGradient id="paint1_linear_230_783" x1="370.735" y1="100.706" x2="372.621" y2="112.985" gradientUnits="userSpaceOnUse">
<stop stop-color="#80FF72"/>
<stop offset="1" stop-color="#31DEFC"/>
</linearGradient>
<linearGradient id="paint2_linear_230_783" x1="446.937" y1="101.189" x2="448.823" y2="113.468" gradientUnits="userSpaceOnUse">
<stop stop-color="#80FF72"/>
<stop offset="1" stop-color="#31DEFC"/>
</linearGradient>
<linearGradient id="paint3_linear_230_783" x1="523.159" y1="101.672" x2="525.045" y2="113.951" gradientUnits="userSpaceOnUse">
<stop stop-color="#80FF72"/>
<stop offset="1" stop-color="#31DEFC"/>
</linearGradient>
<linearGradient id="paint4_linear_230_783" x1="599.361" y1="102.154" x2="601.248" y2="114.433" gradientUnits="userSpaceOnUse">
<stop stop-color="#80FF72"/>
<stop offset="1" stop-color="#31DEFC"/>
</linearGradient>
<linearGradient id="paint5_linear_230_783" x1="390.93" y1="67.9214" x2="417.562" y2="75.8895" gradientUnits="userSpaceOnUse">
<stop stop-color="#80FF72"/>
<stop offset="1" stop-color="#31DEFC"/>
</linearGradient>
<linearGradient id="paint6_linear_230_783" x1="467.593" y1="67.9214" x2="494.225" y2="75.8895" gradientUnits="userSpaceOnUse">
<stop stop-color="#80FF72"/>
<stop offset="1" stop-color="#31DEFC"/>
</linearGradient>
<linearGradient id="paint7_linear_230_783" x1="544.255" y1="67.9214" x2="570.888" y2="75.8895" gradientUnits="userSpaceOnUse">
<stop stop-color="#80FF72"/>
<stop offset="1" stop-color="#31DEFC"/>
</linearGradient>
<linearGradient id="paint8_linear_230_783" x1="620.917" y1="67.9214" x2="647.55" y2="75.8895" gradientUnits="userSpaceOnUse">
<stop stop-color="#80FF72"/>
<stop offset="1" stop-color="#31DEFC"/>
</linearGradient>
<clipPath id="clip0_230_783">
<rect width="708" height="471" fill="white"/>
</clipPath>
</defs>
</svg>
