<svg width="32" height="32" viewBox="0 0 32 32" fill="none" xmlns="http://www.w3.org/2000/svg">
<path d="M8.8256 22.7583C5.2064 18.8671 5.2704 12.7679 9.0304 8.98068C10.504 7.48996 12.4201 6.51564 14.4928 6.20308L14.3824 2.87988C11.4727 3.23121 8.76751 4.557 6.7072 6.64148C1.6688 11.7135 1.608 19.9039 6.5104 25.0911L3.7248 27.8943L12.5408 28.3759L12.5168 19.0415L8.8256 22.7583ZM19.4608 3.62388L19.4848 12.9583L23.176 9.24308C26.7952 13.1375 26.7312 19.2367 22.9712 23.0207C21.4979 24.5118 19.5816 25.4862 17.5088 25.7983L17.6192 29.1199C20.5289 28.7681 23.2343 27.4431 25.296 25.3599C30.3328 20.2847 30.3936 12.0943 25.4912 6.91028L28.2768 4.10388L19.4608 3.62388Z" fill="url(#paint0_linear_230_779)"/>
<defs>
<linearGradient id="paint0_linear_230_779" x1="2.88037" y1="2.87988" x2="34.1734" y2="12.2524" gradientUnits="userSpaceOnUse">
<stop stop-color="#80FF72"/>
<stop offset="1" stop-color="#31DEFC"/>
</linearGradient>
</defs>
</svg>
