<svg width="32" height="32" viewBox="0 0 32 32" fill="none" xmlns="http://www.w3.org/2000/svg">
<path d="M4.33133 3.16898L28.4113 14.6855C28.6547 14.8018 28.8602 14.9845 29.0041 15.2126C29.148 15.4408 29.2243 15.705 29.2243 15.9747C29.2243 16.2444 29.148 16.5086 29.0041 16.7367C28.8602 16.9649 28.6547 17.1476 28.4113 17.2638L4.33133 28.7804C4.08448 28.8986 3.80885 28.9435 3.53725 28.9096C3.26565 28.8757 3.00951 28.7645 2.7993 28.5892C2.58909 28.4139 2.43366 28.1819 2.35151 27.9208C2.26936 27.6597 2.26394 27.3805 2.3359 27.1164L5.3759 15.9747L2.3359 4.83298C2.26394 4.5689 2.26936 4.2897 2.35151 4.02861C2.43366 3.76752 2.58909 3.53553 2.7993 3.36023C3.00951 3.18494 3.26565 3.07372 3.53725 3.03981C3.80885 3.00591 4.08448 3.05074 4.33133 3.16898ZM4.15419 4.98498L6.92333 15.1415L19.4285 15.1427C19.6358 15.1427 19.836 15.2179 19.9922 15.3543C20.1483 15.4907 20.2497 15.679 20.2776 15.8844L20.2856 15.9998C20.2856 16.207 20.2106 16.4071 20.0745 16.5632C19.9383 16.7193 19.7503 16.8208 19.545 16.849L19.4285 16.857H6.90962L4.15533 26.9644L27.1336 15.9747L4.15419 4.98498Z" fill="url(#paint0_linear_214_570)"/>
<defs>
<linearGradient id="paint0_linear_214_570" x1="2.28564" y1="3.02881" x2="34.1941" y2="12.9717" gradientUnits="userSpaceOnUse">
<stop stop-color="#80FF72"/>
<stop offset="1" stop-color="#31DEFC"/>
</linearGradient>
</defs>
</svg>
