<svg width="145" height="31" viewBox="0 0 145 31" fill="none" xmlns="http://www.w3.org/2000/svg">
<path d="M7.272 30.816L5.064 27.472C6.62133 27.3547 7.82667 27.1787 8.68 26.944C9.544 26.7093 10.1467 26.3733 10.488 25.936C10.8293 25.4987 11 24.928 11 24.224V23.04C10.168 23.936 8.99467 24.384 7.48 24.384C6.06133 24.384 4.84 24.0427 3.816 23.36C2.792 22.6667 2.00267 21.68 1.448 20.4C0.904 19.1093 0.632 17.5787 0.632 15.808C0.632 14.08 0.914667 12.576 1.48 11.296C2.056 10.016 2.856 9.024 3.88 8.32C4.91467 7.616 6.12533 7.264 7.512 7.264C8.23733 7.264 8.89867 7.376 9.496 7.6C10.104 7.824 10.6053 8.14933 11 8.576V7.648H14.984V22.528C14.984 23.9787 14.8507 25.2053 14.584 26.208C14.3173 27.2107 13.88 28.032 13.272 28.672C12.6747 29.312 11.8853 29.7973 10.904 30.128C9.92267 30.4693 8.712 30.6987 7.272 30.816ZM8.136 20.56C8.70133 20.56 9.22933 20.432 9.72 20.176C10.2213 19.9093 10.648 19.552 11 19.104V12.512C10.7013 12.096 10.2907 11.7547 9.768 11.488C9.24533 11.2107 8.71733 11.072 8.184 11.072C7.032 11.072 6.152 11.4773 5.544 12.288C4.94667 13.088 4.648 14.2613 4.648 15.808C4.648 16.8107 4.78133 17.6693 5.048 18.384C5.32533 19.088 5.72533 19.6267 6.248 20C6.77067 20.3733 7.4 20.56 8.136 20.56ZM26.3883 24.384C24.8203 24.384 23.4656 24.032 22.3243 23.328C21.1936 22.624 20.3189 21.632 19.7003 20.352C19.0923 19.0613 18.7883 17.5467 18.7883 15.808C18.7883 14.048 19.0976 12.528 19.7163 11.248C20.3456 9.968 21.2256 8.98667 22.3563 8.304C23.4976 7.61067 24.8416 7.264 26.3883 7.264C27.7109 7.264 28.9109 7.54133 29.9883 8.096C31.0656 8.65067 31.9243 9.504 32.5643 10.656C33.2043 11.7973 33.5243 13.2533 33.5243 15.024C33.5243 15.3013 33.5136 15.6427 33.4923 16.048C33.4816 16.4427 33.4549 16.8427 33.4123 17.248H22.7403C22.7829 17.9947 22.9536 18.6507 23.2523 19.216C23.5616 19.7707 23.9829 20.2027 24.5163 20.512C25.0496 20.8213 25.6789 20.976 26.4043 20.976C27.1829 20.976 27.8603 20.848 28.4363 20.592C29.0123 20.3253 29.5563 19.904 30.0683 19.328L32.3723 21.712C31.6683 22.512 30.8203 23.1573 29.8283 23.648C28.8363 24.1387 27.6896 24.384 26.3883 24.384ZM22.7563 14.128H29.6523C29.5989 13.4133 29.4389 12.8 29.1723 12.288C28.9056 11.7653 28.5323 11.3653 28.0523 11.088C27.5723 10.8107 26.9909 10.672 26.3083 10.672C25.3696 10.672 24.5696 10.96 23.9083 11.536C23.2469 12.112 22.8629 12.976 22.7563 14.128ZM42.0765 24.384C40.7752 24.384 39.7992 24.0267 39.1485 23.312C38.4978 22.5973 38.1725 21.5307 38.1725 20.112V11.152H35.7885V7.648H38.1725V2.8L42.1405 0.895998V7.648H45.8525V11.152H42.1405V19.392C42.1405 19.904 42.2418 20.2827 42.4445 20.528C42.6578 20.7733 42.9885 20.896 43.4365 20.896C44.2258 20.896 45.0898 20.6507 46.0285 20.16L45.5645 23.648C45.0738 23.8933 44.5405 24.0747 43.9645 24.192C43.3885 24.32 42.7592 24.384 42.0765 24.384ZM50.622 24.4C49.8753 24.4 49.2513 24.1547 48.75 23.664C48.2487 23.1627 47.998 22.5493 47.998 21.824C47.998 21.1093 48.2487 20.496 48.75 19.984C49.2513 19.4613 49.8753 19.2 50.622 19.2C51.3687 19.2 51.998 19.4613 52.51 19.984C53.022 20.496 53.278 21.1093 53.278 21.824C53.278 22.5493 53.022 23.1627 52.51 23.664C51.998 24.1547 51.3687 24.4 50.622 24.4ZM57.1873 24V1.6H66.8513C68.6753 1.6 70.1153 1.89333 71.1713 2.48C72.2273 3.056 72.9793 3.808 73.4273 4.736C73.8753 5.65333 74.0993 6.61333 74.0993 7.616C74.0993 8.61867 73.8806 9.536 73.4433 10.368C73.0059 11.1893 72.2913 11.824 71.2993 12.272C72.1099 12.56 72.7766 12.976 73.2993 13.52C73.8326 14.0533 74.2219 14.6613 74.4673 15.344C74.7233 16.016 74.8513 16.6987 74.8513 17.392C74.8513 18.1813 74.7179 18.9707 74.4513 19.76C74.1953 20.5387 73.7739 21.248 73.1873 21.888C72.6006 22.528 71.8219 23.04 70.8513 23.424C69.8913 23.808 68.7073 24 67.2993 24H57.1873ZM61.3313 20.112H67.5713C68.3713 20.112 68.9953 19.9733 69.4433 19.696C69.9019 19.4187 70.2219 19.072 70.4033 18.656C70.5953 18.2293 70.6912 17.808 70.6912 17.392C70.6912 16.88 70.5793 16.3947 70.3553 15.936C70.1419 15.4667 69.7419 15.0827 69.1553 14.784C68.5793 14.4853 67.7419 14.336 66.6433 14.336H61.3313V20.112ZM61.3313 10.608H66.3393C67.5553 10.608 68.4513 10.3733 69.0273 9.904C69.6139 9.424 69.9073 8.78933 69.9073 8C69.9073 7.59467 69.8326 7.2 69.6833 6.816C69.5339 6.42133 69.2459 6.096 68.8193 5.84C68.3926 5.584 67.7633 5.456 66.9313 5.456H61.3313V10.608ZM85.9318 24.384C83.6278 24.384 81.8091 23.6213 80.4758 22.096C79.1424 20.5707 78.4758 18.4853 78.4758 15.84C78.4758 14.0907 78.7798 12.576 79.3878 11.296C79.9958 10.0053 80.8544 9.01333 81.9638 8.32C83.0838 7.616 84.4064 7.264 85.9318 7.264C87.4464 7.264 88.7584 7.61067 89.8678 8.304C90.9771 8.99733 91.8304 9.984 92.4278 11.264C93.0251 12.544 93.3238 14.064 93.3238 15.824C93.3238 17.5947 93.0251 19.12 92.4278 20.4C91.8411 21.68 90.9931 22.6667 89.8838 23.36C88.7744 24.0427 87.4571 24.384 85.9318 24.384ZM85.9318 20.56C87.0091 20.56 87.8464 20.144 88.4438 19.312C89.0411 18.48 89.3398 17.3173 89.3398 15.824C89.3398 14.3307 89.0358 13.168 88.4278 12.336C87.8304 11.4933 86.9984 11.072 85.9318 11.072C84.8544 11.072 84.0118 11.4933 83.4038 12.336C82.7958 13.1787 82.4918 14.3467 82.4918 15.84C82.4918 17.312 82.7958 18.4693 83.4038 19.312C84.0118 20.144 84.8544 20.56 85.9318 20.56ZM104.244 24.384C101.94 24.384 100.122 23.6213 98.7883 22.096C97.4549 20.5707 96.7883 18.4853 96.7883 15.84C96.7883 14.0907 97.0923 12.576 97.7003 11.296C98.3083 10.0053 99.1669 9.01333 100.276 8.32C101.396 7.616 102.719 7.264 104.244 7.264C105.759 7.264 107.071 7.61067 108.18 8.304C109.29 8.99733 110.143 9.984 110.74 11.264C111.338 12.544 111.636 14.064 111.636 15.824C111.636 17.5947 111.338 19.12 110.74 20.4C110.154 21.68 109.306 22.6667 108.196 23.36C107.087 24.0427 105.77 24.384 104.244 24.384ZM104.244 20.56C105.322 20.56 106.159 20.144 106.756 19.312C107.354 18.48 107.652 17.3173 107.652 15.824C107.652 14.3307 107.348 13.168 106.74 12.336C106.143 11.4933 105.311 11.072 104.244 11.072C103.167 11.072 102.324 11.4933 101.716 12.336C101.108 13.1787 100.804 14.3467 100.804 15.84C100.804 17.312 101.108 18.4693 101.716 19.312C102.324 20.144 103.167 20.56 104.244 20.56ZM115.777 24V2.768L119.777 0.895998V12.304L124.321 7.648H129.057L124.321 12.352L130.337 24H125.985L121.393 15.2L119.777 16.8V24H115.777ZM138.246 24.384C136.966 24.384 135.74 24.112 134.566 23.568C133.404 23.024 132.481 22.2933 131.798 21.376L134.422 19.168C134.966 19.744 135.596 20.2027 136.31 20.544C137.025 20.8747 137.708 21.04 138.358 21.04C139.169 21.04 139.793 20.9067 140.23 20.64C140.668 20.3627 140.886 19.9787 140.886 19.488C140.886 19.168 140.78 18.8853 140.566 18.64C140.364 18.384 140.001 18.128 139.478 17.872C138.956 17.6053 138.22 17.3013 137.27 16.96C135.436 16.288 134.134 15.5627 133.366 14.784C132.598 13.9947 132.214 12.9973 132.214 11.792C132.214 10.448 132.758 9.36 133.846 8.528C134.934 7.68533 136.353 7.264 138.102 7.264C139.297 7.264 140.396 7.488 141.398 7.936C142.412 8.384 143.281 9.04 144.006 9.904L141.398 12.064C140.438 11.0933 139.318 10.608 138.038 10.608C137.388 10.608 136.865 10.7307 136.47 10.976C136.076 11.2107 135.878 11.5307 135.878 11.936C135.878 12.3307 136.108 12.6827 136.566 12.992C137.036 13.3013 137.905 13.664 139.174 14.08C140.433 14.4747 141.452 14.9227 142.23 15.424C143.02 15.9253 143.596 16.5067 143.958 17.168C144.332 17.8293 144.518 18.592 144.518 19.456C144.518 20.992 143.958 22.1973 142.838 23.072C141.729 23.9467 140.198 24.384 138.246 24.384Z" fill="url(#paint0_linear_315_2)"/>
<defs>
<linearGradient id="paint0_linear_315_2" x1="-1" y1="-5" x2="87.6781" y2="90.8711" gradientUnits="userSpaceOnUse">
<stop stop-color="#80FF72"/>
<stop offset="1" stop-color="#31DEFC"/>
</linearGradient>
</defs>
</svg>
